<?xml version="1.0" encoding="utf-8"?>
<!-- Generator: Adobe Illustrator 24.1.2, SVG Export Plug-In . SVG Version: 6.00 Build 0)  -->
<svg version="1.1" id="Layer_1" xmlns="http://www.w3.org/2000/svg" xmlns:xlink="http://www.w3.org/1999/xlink" x="0px" y="0px"
	 viewBox="0 0 425 385" style="enable-background:new 0 0 425 385;" xml:space="preserve">
<style type="text/css">
	.st0{fill-rule:evenodd;clip-rule:evenodd;fill:#ECECEC;}
	.st1{fill-rule:evenodd;clip-rule:evenodd;fill:#BD5400;}
	.st2{fill:none;}
	.st3{enable-background:new    ;}
	.st4{clip-path:url(#SVGID_2_);}
	.st5{clip-path:url(#SVGID_4_);}
	.st6{clip-path:url(#SVGID_6_);fill:#E5AE85;}
	.st7{clip-path:url(#SVGID_8_);}
	.st8{clip-path:url(#SVGID_10_);}
	.st9{clip-path:url(#SVGID_12_);fill:#E5AE85;}
	.st10{clip-path:url(#SVGID_14_);}
	.st11{clip-path:url(#SVGID_16_);}
	.st12{clip-path:url(#SVGID_18_);fill:#00596F;}
	.st13{clip-path:url(#SVGID_20_);}
	.st14{clip-path:url(#SVGID_22_);fill:#E5AE85;}
	.st15{fill:#E5AE85;}
	.st16{fill-rule:evenodd;clip-rule:evenodd;fill:#D3976E;}
	.st17{fill-rule:evenodd;clip-rule:evenodd;fill:#272926;}
	.st18{fill-rule:evenodd;clip-rule:evenodd;fill:#FFFFFF;}
	.st19{clip-path:url(#SVGID_24_);}
	.st20{clip-path:url(#SVGID_26_);enable-background:new    ;}
	.st21{clip-path:url(#SVGID_28_);}
	.st22{clip-path:url(#SVGID_30_);fill:none;stroke:#4A4A4A;stroke-width:1.5523;stroke-miterlimit:10;}
	.st23{clip-path:url(#SVGID_32_);}
	.st24{clip-path:url(#SVGID_34_);enable-background:new    ;}
	.st25{clip-path:url(#SVGID_36_);}
	.st26{clip-path:url(#SVGID_38_);fill:none;stroke:#4A4A4A;stroke-width:1.5523;stroke-miterlimit:10;}
	.st27{clip-path:url(#SVGID_40_);}
	.st28{clip-path:url(#SVGID_42_);fill:#16191F;}
	.st29{clip-path:url(#SVGID_44_);}
	.st30{clip-path:url(#SVGID_46_);fill:#F9A35E;}
	.st31{clip-path:url(#SVGID_48_);}
	.st32{opacity:0.1;clip-path:url(#SVGID_50_);fill:#432413;}
	.st33{clip-path:url(#SVGID_52_);}
	.st34{clip-path:url(#SVGID_54_);fill:#F9A35E;}
	.st35{clip-path:url(#SVGID_56_);}
	.st36{clip-path:url(#SVGID_58_);fill:#F9A35E;}
	.st37{clip-path:url(#SVGID_60_);}
	.st38{clip-path:url(#SVGID_62_);enable-background:new    ;}
	.st39{clip-path:url(#SVGID_64_);}
	.st40{clip-path:url(#SVGID_66_);}
	.st41{clip-path:url(#SVGID_68_);fill:#6E6355;}
	.st42{clip-path:url(#SVGID_70_);}
	.st43{clip-path:url(#SVGID_72_);fill:#F9A35E;}
	.st44{clip-path:url(#SVGID_74_);}
	.st45{clip-path:url(#SVGID_76_);fill:#272926;}
	.st46{clip-path:url(#SVGID_78_);}
	.st47{clip-path:url(#SVGID_80_);fill:#272926;}
	.st48{clip-path:url(#SVGID_82_);}
	.st49{opacity:0.1;clip-path:url(#SVGID_84_);fill:#432413;}
	.st50{clip-path:url(#SVGID_86_);}
	.st51{clip-path:url(#SVGID_88_);fill:#FFFFFF;}
	.st52{clip-path:url(#SVGID_90_);}
	.st53{clip-path:url(#SVGID_92_);fill:#F9A35E;}
	.st54{clip-path:url(#SVGID_94_);}
	.st55{clip-path:url(#SVGID_96_);fill:#F9A35E;}
	.st56{clip-path:url(#SVGID_98_);}
	.st57{clip-path:url(#SVGID_100_);fill:#F9A35E;}
	.st58{clip-path:url(#SVGID_102_);}
	.st59{clip-path:url(#SVGID_104_);fill:#DCA063;}
	.st60{clip-path:url(#SVGID_106_);}
	.st61{clip-path:url(#SVGID_108_);fill:#DCA063;}
	.st62{clip-path:url(#SVGID_110_);}
	.st63{clip-path:url(#SVGID_112_);fill:#4372D0;}
	.st64{clip-path:url(#SVGID_114_);}
	.st65{clip-path:url(#SVGID_116_);fill:#DCA063;}
	.st66{clip-path:url(#SVGID_118_);}
	.st67{clip-path:url(#SVGID_120_);fill:#DCA063;}
	.st68{clip-path:url(#SVGID_122_);}
	.st69{clip-path:url(#SVGID_124_);fill:#DCA063;}
	.st70{clip-path:url(#SVGID_126_);}
	.st71{clip-path:url(#SVGID_128_);fill:#DCA063;}
	.st72{clip-path:url(#SVGID_130_);}
	.st73{clip-path:url(#SVGID_132_);fill:#FFFFFF;}
	.st74{clip-path:url(#SVGID_134_);}
	.st75{clip-path:url(#SVGID_136_);fill:#4A4A4A;}
	.st76{clip-path:url(#SVGID_138_);}
	.st77{clip-path:url(#SVGID_140_);fill:#77441B;}
	.st78{clip-path:url(#SVGID_142_);}
	.st79{clip-path:url(#SVGID_144_);fill:#77441B;}
	.st80{clip-path:url(#SVGID_146_);}
	.st81{clip-path:url(#SVGID_148_);fill:#272926;}
	.st82{clip-path:url(#SVGID_150_);}
	.st83{clip-path:url(#SVGID_152_);fill:#272926;}
	.st84{fill:none;stroke:#979797;stroke-miterlimit:10;}
</style>
<ellipse transform="matrix(2.059685e-03 -1 1 2.059685e-03 22.4084 405.8676)" class="st0" cx="214.6" cy="191.7" rx="179.3" ry="179.3"/>
<ellipse transform="matrix(2.059685e-03 -1 1 2.059685e-03 503.6576 888.1091)" class="st0" cx="696.8" cy="191.7" rx="179.3" ry="179.3"/>
<path class="st1" d="M751.7,270.4H634.1V137.8c0-28.9,20.8-52.3,46.6-52.3h24.5c25.7,0,46.6,23.4,46.6,52.3V270.4z"/>
<path class="st2" d="M663.3,278.5c0-0.5-0.5-1-1-1H653h-6.6v23.1h16.9V278.5z"/>
<g class="st3">
	<g>
		<g>
			<defs>
				<rect id="SVGID_1_" x="720.1" y="273.9" width="27" height="27"/>
			</defs>
			<clipPath id="SVGID_2_">
				<use xlink:href="#SVGID_1_"  style="overflow:visible;"/>
			</clipPath>
			<g class="st4">
				<g>
					<defs>
						<path id="SVGID_3_" d="M725.6,277.6c-0.6,0-1,0.4-1,1v22.1h16.9v-23.1H735H725.6z"/>
					</defs>
					<clipPath id="SVGID_4_">
						<use xlink:href="#SVGID_3_"  style="overflow:visible;"/>
					</clipPath>
					<g class="st5">
						<g>
							<defs>
								<rect id="SVGID_5_" x="720.1" y="273.9" width="27" height="27"/>
							</defs>
							<clipPath id="SVGID_6_">
								<use xlink:href="#SVGID_5_"  style="overflow:visible;"/>
							</clipPath>
							<rect x="690.8" y="243.8" class="st6" width="84.4" height="90.6"/>
						</g>
					</g>
				</g>
			</g>
		</g>
	</g>
</g>
<g class="st3">
	<g>
		<g>
			<defs>
				<rect id="SVGID_7_" x="642.1" y="273.9" width="27" height="27"/>
			</defs>
			<clipPath id="SVGID_8_">
				<use xlink:href="#SVGID_7_"  style="overflow:visible;"/>
			</clipPath>
			<g class="st7">
				<g>
					<defs>
						<path id="SVGID_9_" d="M647.6,277.6c-0.6,0-1,0.4-1,1v22.1h16.9v-23.1H657H647.6z"/>
					</defs>
					<clipPath id="SVGID_10_">
						<use xlink:href="#SVGID_9_"  style="overflow:visible;"/>
					</clipPath>
					<g class="st8">
						<g>
							<defs>
								<rect id="SVGID_11_" x="642.1" y="273.9" width="27" height="27"/>
							</defs>
							<clipPath id="SVGID_12_">
								<use xlink:href="#SVGID_11_"  style="overflow:visible;"/>
							</clipPath>
							<rect x="612.8" y="243.8" class="st9" width="84.4" height="90.6"/>
						</g>
					</g>
				</g>
			</g>
		</g>
	</g>
</g>
<rect x="724.6" y="277.6" class="st2" width="16.9" height="23.1"/>
<g class="st3">
	<g>
		<g>
			<defs>
				<rect id="SVGID_13_" x="645.8" y="219.9" width="101.3" height="81"/>
			</defs>
			<clipPath id="SVGID_14_">
				<use xlink:href="#SVGID_13_"  style="overflow:visible;"/>
			</clipPath>
			<g class="st10">
				<g>
					<defs>
						<path id="SVGID_15_" d="M662.2,277.6c0.6,0,1,0.4,1,1v22.1h61.3v-22.1c0-0.5,0.5-1,1-1h9.4h6.5v-16.8v-4.1
							c0-18.3-13.1-33-32.7-33h-30c-19.6,0-32.5,14.7-32.5,33v3.8v17.1h6.6H662.2z"/>
					</defs>
					<clipPath id="SVGID_16_">
						<use xlink:href="#SVGID_15_"  style="overflow:visible;"/>
					</clipPath>
					<g class="st11">
						<g>
							<defs>
								<rect id="SVGID_17_" x="645.8" y="219.9" width="101.3" height="81"/>
							</defs>
							<clipPath id="SVGID_18_">
								<use xlink:href="#SVGID_17_"  style="overflow:visible;"/>
							</clipPath>
							<rect x="612.6" y="189.9" class="st12" width="162.6" height="144.6"/>
						</g>
					</g>
				</g>
			</g>
		</g>
	</g>
</g>
<rect x="646.3" y="223.6" class="st2" width="95.2" height="77.1"/>
<g>
	<g>
		<defs>
			<path id="SVGID_19_" d="M703.4,211.8h-18.9c-1.1,0-1.9,0.9-1.9,1.9v1.8c2.2,1.1,5.7,2,11.4,2c5.5,0,9.1-1,11.4-2.4v-1.4
				C705.3,212.7,704.4,211.8,703.4,211.8"/>
		</defs>
		<clipPath id="SVGID_20_">
			<use xlink:href="#SVGID_19_"  style="overflow:visible;"/>
		</clipPath>
		<g class="st13">
			<g>
				<defs>
					<rect id="SVGID_21_" x="-353.3" y="-4188.2" width="12961.1" height="7290.6"/>
				</defs>
				<clipPath id="SVGID_22_">
					<use xlink:href="#SVGID_21_"  style="overflow:visible;"/>
				</clipPath>
				<rect x="648.8" y="178.1" class="st14" width="90.2" height="73.2"/>
			</g>
		</g>
	</g>
</g>
<path class="st15" d="M738.1,155.6L738.1,155.6v-22.1c-40.8,12.6-59.3,10.5-85.6-1.6c-3.9,11.1-3.1,21.2-2.9,23.7
	c-4.4,0-7.9,3.6-7.9,7.9c0,4.4,3.6,7.9,8,7.9c0,0,0,0,0,0c0.4,20.1,14.2,36.8,32.8,41.8v18.1c0,6.3,5.1,11.4,11.4,11.4
	c6.3,0,11.4-5.1,11.4-11.4v-18.1c18.6-4.9,32.4-21.7,32.8-41.8c0,0,0,0,0,0c4.4,0,8-3.6,8-7.9C746.1,159.1,742.5,155.6,738.1,155.6z
	"/>
<path class="st16" d="M693.9,178.7c2.3,0,4.2-1.9,4.2-4.2h-8.4C689.7,176.8,691.6,178.7,693.9,178.7"/>
<path class="st17" d="M678.3,159.8c0,1.6-1.3,2.9-2.9,2.9s-2.9-1.3-2.9-2.9c0-1.6,1.3-2.9,2.9-2.9
	C677.1,156.9,678.3,158.2,678.3,159.8"/>
<path class="st18" d="M683.2,190.4c0.1,4.3,5,7.7,11,7.6s10.7-3.6,10.5-7.9L683.2,190.4z"/>
<g>
	<g>
		<defs>
			<path id="SVGID_23_" d="M657,149.3h27.5c2.9,0,5.2,2.4,5.2,5.2v12.2c0,2.9-2.3,5.2-5.2,5.2H657c-2.9,0-5.2-2.4-5.2-5.2v-12.2
				C651.8,151.7,654.1,149.3,657,149.3z"/>
		</defs>
		<clipPath id="SVGID_24_">
			<use xlink:href="#SVGID_23_"  style="overflow:visible;"/>
		</clipPath>
		<g class="st19">
			<g>
				<defs>
					<rect id="SVGID_25_" x="-353.3" y="-4188.2" width="12961.1" height="7290.6"/>
				</defs>
				<clipPath id="SVGID_26_">
					<use xlink:href="#SVGID_25_"  style="overflow:visible;"/>
				</clipPath>
				<g class="st20">
					<g>
						<g>
							<defs>
								<rect id="SVGID_27_" x="598.6" y="91.7" width="148.5" height="135"/>
							</defs>
							<clipPath id="SVGID_28_">
								<use xlink:href="#SVGID_27_"  style="overflow:visible;"/>
							</clipPath>
							<g class="st21">
								<g>
									<defs>
										<rect id="SVGID_29_" x="645.8" y="145.7" width="47.2" height="27"/>
									</defs>
									<clipPath id="SVGID_30_">
										<use xlink:href="#SVGID_29_"  style="overflow:visible;"/>
									</clipPath>
									<path class="st22" d="M657,149.3h27.5c2.9,0,5.2,2.4,5.2,5.2v12.2c0,2.9-2.3,5.2-5.2,5.2H657c-2.9,0-5.2-2.4-5.2-5.2v-12.2
										C651.8,151.7,654.1,149.3,657,149.3z"/>
								</g>
							</g>
						</g>
					</g>
				</g>
			</g>
		</g>
	</g>
</g>
<g>
	<g>
		<defs>
			<path id="SVGID_31_" d="M702.5,149.3H730c2.9,0,5.2,2.4,5.2,5.2v12.2c0,2.9-2.4,5.2-5.2,5.2h-27.5c-2.9,0-5.2-2.4-5.2-5.2v-12.2
				C697.3,151.7,699.7,149.3,702.5,149.3z"/>
		</defs>
		<clipPath id="SVGID_32_">
			<use xlink:href="#SVGID_31_"  style="overflow:visible;"/>
		</clipPath>
		<g class="st23">
			<g>
				<defs>
					<rect id="SVGID_33_" x="-353.3" y="-4188.2" width="12961.1" height="7290.6"/>
				</defs>
				<clipPath id="SVGID_34_">
					<use xlink:href="#SVGID_33_"  style="overflow:visible;"/>
				</clipPath>
				<g class="st24">
					<g>
						<g>
							<defs>
								<rect id="SVGID_35_" x="639.1" y="91.7" width="155.3" height="135"/>
							</defs>
							<clipPath id="SVGID_36_">
								<use xlink:href="#SVGID_35_"  style="overflow:visible;"/>
							</clipPath>
							<g class="st25">
								<g>
									<defs>
										<rect id="SVGID_37_" x="693.1" y="145.7" width="47.3" height="27"/>
									</defs>
									<clipPath id="SVGID_38_">
										<use xlink:href="#SVGID_37_"  style="overflow:visible;"/>
									</clipPath>
									<path class="st26" d="M702.5,149.3H730c2.9,0,5.2,2.4,5.2,5.2v12.2c0,2.9-2.4,5.2-5.2,5.2h-27.5c-2.9,0-5.2-2.4-5.2-5.2
										v-12.2C697.3,151.7,699.7,149.3,702.5,149.3z"/>
								</g>
							</g>
						</g>
					</g>
				</g>
			</g>
		</g>
	</g>
</g>
<path class="st17" d="M716.3,159.8c0,1.6-1.3,2.9-2.9,2.9s-2.9-1.3-2.9-2.9c0-1.6,1.3-2.9,2.9-2.9
	C715,156.9,716.3,158.2,716.3,159.8"/>
<ellipse transform="matrix(2.059685e-03 -1 1 2.059685e-03 1013.9048 1399.4083)" class="st0" cx="1208.1" cy="191.7" rx="179.3" ry="179.3"/>
<g>
	<defs>
		<path id="SVGID_39_" d="M1156.2,268v-8.4c0-20.8,16.6-37.7,37.1-37.7h17.4h18.2c20.1,0,36.4,16.5,36.4,37v43.1h-109.1v-12.8V268z"
			/>
	</defs>
	<clipPath id="SVGID_40_">
		<use xlink:href="#SVGID_39_"  style="overflow:visible;"/>
	</clipPath>
	<g class="st27">
		<defs>
			<rect id="SVGID_41_" x="-1156.4" y="-1168.3" width="3875.4" height="2179.9"/>
		</defs>
		<clipPath id="SVGID_42_">
			<use xlink:href="#SVGID_41_"  style="overflow:visible;"/>
		</clipPath>
		<rect x="1146.2" y="211.8" class="st28" width="129.3" height="100.2"/>
	</g>
</g>
<g>
	<defs>
		<path id="SVGID_43_" d="M1210.8,240L1210.8,240c-9,0-16.4-7-16.4-15.7v-13.4h32.7v13.4C1227.2,233,1219.8,240,1210.8,240"/>
	</defs>
	<clipPath id="SVGID_44_">
		<use xlink:href="#SVGID_43_"  style="overflow:visible;"/>
	</clipPath>
	<g class="st29">
		<defs>
			<rect id="SVGID_45_" x="-1156.4" y="-1168.3" width="3875.4" height="2179.9"/>
		</defs>
		<clipPath id="SVGID_46_">
			<use xlink:href="#SVGID_45_"  style="overflow:visible;"/>
		</clipPath>
		<rect x="1184.3" y="200.9" class="st30" width="52.9" height="49.3"/>
	</g>
</g>
<g>
	<defs>
		<path id="SVGID_47_" d="M1227.2,207.3v6.8c-16.4,4.5-27.4,1.1-32.7-0.3v-6.5H1227.2z"/>
	</defs>
	<clipPath id="SVGID_48_">
		<use xlink:href="#SVGID_47_"  style="overflow:visible;"/>
	</clipPath>
	<g class="st31">
		<defs>
			<rect id="SVGID_49_" x="-1156.4" y="-1168.3" width="3875.4" height="2179.9"/>
		</defs>
		<clipPath id="SVGID_50_">
			<use xlink:href="#SVGID_49_"  style="overflow:visible;"/>
		</clipPath>
		<rect x="1184.3" y="197.2" class="st32" width="52.9" height="29.3"/>
	</g>
</g>
<g>
	<defs>
		<path id="SVGID_51_" d="M1176.2,146.4c0,4.5-3.7,8.2-8.2,8.2s-8.2-3.7-8.2-8.2s3.7-8.2,8.2-8.2S1176.2,141.9,1176.2,146.4"/>
	</defs>
	<clipPath id="SVGID_52_">
		<use xlink:href="#SVGID_51_"  style="overflow:visible;"/>
	</clipPath>
	<g class="st33">
		<defs>
			<rect id="SVGID_53_" x="-1156.4" y="-1168.3" width="3875.4" height="2179.9"/>
		</defs>
		<clipPath id="SVGID_54_">
			<use xlink:href="#SVGID_53_"  style="overflow:visible;"/>
		</clipPath>
		<rect x="1149.8" y="128.1" class="st34" width="36.5" height="36.6"/>
	</g>
</g>
<g>
	<defs>
		<path id="SVGID_55_" d="M1263.5,146.4c0,4.5-3.7,8.2-8.2,8.2s-8.2-3.7-8.2-8.2s3.7-8.2,8.2-8.2S1263.5,141.9,1263.5,146.4"/>
	</defs>
	<clipPath id="SVGID_56_">
		<use xlink:href="#SVGID_55_"  style="overflow:visible;"/>
	</clipPath>
	<g class="st35">
		<defs>
			<rect id="SVGID_57_" x="-1156.4" y="-1168.3" width="3875.4" height="2179.9"/>
		</defs>
		<clipPath id="SVGID_58_">
			<use xlink:href="#SVGID_57_"  style="overflow:visible;"/>
		</clipPath>
		<rect x="1237.1" y="128.1" class="st36" width="36.5" height="36.6"/>
	</g>
</g>
<g>
	<defs>
		<rect id="SVGID_59_" x="1156.6" y="77" width="101.1" height="138.1"/>
	</defs>
	<clipPath id="SVGID_60_">
		<use xlink:href="#SVGID_59_"  style="overflow:visible;"/>
	</clipPath>
	<g class="st37">
		<defs>
			<rect id="SVGID_61_" x="-1156.4" y="-1168.3" width="3875.4" height="2179.9"/>
		</defs>
		<clipPath id="SVGID_62_">
			<use xlink:href="#SVGID_61_"  style="overflow:visible;"/>
		</clipPath>
		<g class="st38">
			<g>
				<defs>
					<rect id="SVGID_63_" x="1154.7" y="69" width="102.9" height="147.3"/>
				</defs>
				<clipPath id="SVGID_64_">
					<use xlink:href="#SVGID_63_"  style="overflow:visible;"/>
				</clipPath>
				<g class="st39">
					<defs>
						<path id="SVGID_65_" d="M1257.7,109.6c0-3.8-3.1-12.6-3.1-12.6c0,0-9.9-27-40.9-11.5c-0.4,0.2-2.5-2.4-2.9-2.6
							c-2.5-2-5.3-3.5-8.2-4.6c-9.1-3.1-20.7-0.4-27.8,6.8c-3,3.1-9,11.9-9,11.9c-1.7,2.3-5,4.4-9.2,5.3c0.2,0.4,2,3.6,5.2,7.3
							c0,0,1.3,13.6,4,40.7c0,0,0,6.4,0,19.3c0,25,20.3,45.9,45.1,45.5c24.1-0.4,43.7-20.2,43.7-44.6v-19
							C1254.6,151.5,1255.6,137.6,1257.7,109.6z"/>
					</defs>
					<clipPath id="SVGID_66_">
						<use xlink:href="#SVGID_65_"  style="overflow:visible;"/>
					</clipPath>
					<g class="st40">
						<defs>
							<rect id="SVGID_67_" x="1154.7" y="75.1" width="102.9" height="141.3"/>
						</defs>
						<clipPath id="SVGID_68_">
							<use xlink:href="#SVGID_67_"  style="overflow:visible;"/>
						</clipPath>
						<rect x="1146.5" y="66.9" class="st41" width="121.3" height="158.3"/>
					</g>
				</g>
			</g>
		</g>
	</g>
</g>
<g>
	<defs>
		<path id="SVGID_69_" d="M1179.7,124c-2.4-1.2-5.3,0.6-5.3,3.3v26.4c0,2.7,1.1,5.1,2.6,7c2.4,2.9,6.3,4.6,10.3,3.9
			c0.3-0.1,0.7-0.1,1.1-0.2c5.7-1.2,16-4.4,23.6-4.4c9.8,0,15.9,4,23.6,5.3c0.1,0,0.2,0,0.3,0.1c4.4,0.7,8.3-1.2,10.7-4.5
			c1.5-2,2.2-4.5,2.2-7.2v-27.3c0-1.1-1.1-1.7-1.9-1C1225.9,144,1192.5,130.4,1179.7,124z"/>
	</defs>
	<clipPath id="SVGID_70_">
		<use xlink:href="#SVGID_69_"  style="overflow:visible;"/>
	</clipPath>
	<g class="st42">
		<defs>
			<rect id="SVGID_71_" x="-1156.4" y="-1168.3" width="3875.4" height="2179.9"/>
		</defs>
		<clipPath id="SVGID_72_">
			<use xlink:href="#SVGID_71_"  style="overflow:visible;"/>
		</clipPath>
		<rect x="1164.3" y="113.6" class="st43" width="94.7" height="62"/>
	</g>
</g>
<g>
	<defs>
		<path id="SVGID_73_" d="M1199.9,148.2c0,1.5-1.2,2.7-2.7,2.7c-1.5,0-2.7-1.2-2.7-2.7c0-1.5,1.2-2.7,2.7-2.7
			C1198.7,145.5,1199.9,146.7,1199.9,148.2"/>
	</defs>
	<clipPath id="SVGID_74_">
		<use xlink:href="#SVGID_73_"  style="overflow:visible;"/>
	</clipPath>
	<g class="st44">
		<defs>
			<rect id="SVGID_75_" x="-1156.4" y="-1168.3" width="3875.4" height="2179.9"/>
		</defs>
		<clipPath id="SVGID_76_">
			<use xlink:href="#SVGID_75_"  style="overflow:visible;"/>
		</clipPath>
		<rect x="1184.3" y="135.4" class="st45" width="25.6" height="25.6"/>
	</g>
</g>
<g>
	<defs>
		<path id="SVGID_77_" d="M1227.2,148.2c0,1.5-1.2,2.7-2.7,2.7c-1.5,0-2.7-1.2-2.7-2.7c0-1.5,1.2-2.7,2.7-2.7
			C1225.9,145.5,1227.2,146.7,1227.2,148.2"/>
	</defs>
	<clipPath id="SVGID_78_">
		<use xlink:href="#SVGID_77_"  style="overflow:visible;"/>
	</clipPath>
	<g class="st46">
		<defs>
			<rect id="SVGID_79_" x="-1156.4" y="-1168.3" width="3875.4" height="2179.9"/>
		</defs>
		<clipPath id="SVGID_80_">
			<use xlink:href="#SVGID_79_"  style="overflow:visible;"/>
		</clipPath>
		<rect x="1211.6" y="135.4" class="st47" width="25.6" height="25.6"/>
	</g>
</g>
<g>
	<defs>
		<path id="SVGID_81_" d="M1229.5,137.1c-6.3,1.2-13.2,1.4-19.4,0.7c-7.6-0.8-15.2-1.9-22.1-5.5c-2.2-1.2-4.4-2.5-6.4-4
			c-1.1-0.8-2.1-1.6-3.1-2.5c-0.3-0.3-1.9-2.2-2.2-2.1c0.7-0.1,1.5-0.1,2.2,0.3c12.7,6.5,45.9,20.3,66.9,1.3
			c0.7-0.7,1.9-0.2,1.8,0.7c-0.2,1.3-2.2,3-3.1,3.8c-0.9,0.8-1.8,1.5-2.7,2.1c-0.6,0.4-1.2,0.8-1.8,1.2
			C1236.4,135.1,1233,136.4,1229.5,137.1z"/>
	</defs>
	<clipPath id="SVGID_82_">
		<use xlink:href="#SVGID_81_"  style="overflow:visible;"/>
	</clipPath>
	<g class="st48">
		<defs>
			<rect id="SVGID_83_" x="-1156.4" y="-1168.3" width="3875.4" height="2179.9"/>
		</defs>
		<clipPath id="SVGID_84_">
			<use xlink:href="#SVGID_83_"  style="overflow:visible;"/>
		</clipPath>
		<rect x="1166.2" y="113.6" class="st49" width="91.1" height="34.7"/>
	</g>
</g>
<g>
	<defs>
		<path id="SVGID_85_" d="M1199.9,178.5c0.1,3.9,5.1,7.1,11.1,7c6-0.1,10.8-3.3,10.7-7.3L1199.9,178.5z"/>
	</defs>
	<clipPath id="SVGID_86_">
		<use xlink:href="#SVGID_85_"  style="overflow:visible;"/>
	</clipPath>
	<g class="st50">
		<defs>
			<rect id="SVGID_87_" x="-1156.4" y="-1168.3" width="3875.4" height="2179.9"/>
		</defs>
		<clipPath id="SVGID_88_">
			<use xlink:href="#SVGID_87_"  style="overflow:visible;"/>
		</clipPath>
		<rect x="1189.8" y="168.1" class="st51" width="42" height="27.5"/>
	</g>
</g>
<g>
	<defs>
		<rect id="SVGID_89_" x="1156.2" y="276.4" width="18.2" height="25.5"/>
	</defs>
	<clipPath id="SVGID_90_">
		<use xlink:href="#SVGID_89_"  style="overflow:visible;"/>
	</clipPath>
	<g class="st52">
		<defs>
			<rect id="SVGID_91_" x="-1156.4" y="-1168.3" width="3875.4" height="2179.9"/>
		</defs>
		<clipPath id="SVGID_92_">
			<use xlink:href="#SVGID_91_"  style="overflow:visible;"/>
		</clipPath>
		<rect x="1146.2" y="266.3" class="st53" width="38.4" height="45.6"/>
	</g>
</g>
<g>
	<defs>
		<path id="SVGID_93_" d="M1209.9,165.5c-2.5,0-4.5-2-4.5-4.5s2-4.5,4.5-4.5c2.5,0,4.5,2,4.5,4.5S1212.4,165.5,1209.9,165.5z"/>
	</defs>
	<clipPath id="SVGID_94_">
		<use xlink:href="#SVGID_93_"  style="overflow:visible;"/>
	</clipPath>
	<g class="st54">
		<defs>
			<rect id="SVGID_95_" x="-1156.4" y="-1168.3" width="3875.4" height="2179.9"/>
		</defs>
		<clipPath id="SVGID_96_">
			<use xlink:href="#SVGID_95_"  style="overflow:visible;"/>
		</clipPath>
		<rect x="1195.2" y="146.3" class="st55" width="29.3" height="29.3"/>
	</g>
</g>
<g>
	<defs>
		<rect id="SVGID_97_" x="1245.6" y="276.9" width="19.5" height="26"/>
	</defs>
	<clipPath id="SVGID_98_">
		<use xlink:href="#SVGID_97_"  style="overflow:visible;"/>
	</clipPath>
	<g class="st56">
		<defs>
			<rect id="SVGID_99_" x="-1156.4" y="-1168.3" width="3875.4" height="2179.9"/>
		</defs>
		<clipPath id="SVGID_100_">
			<use xlink:href="#SVGID_99_"  style="overflow:visible;"/>
		</clipPath>
		<rect x="1235.5" y="266.8" class="st57" width="39.6" height="46.2"/>
	</g>
</g>
<g>
	<g>
		<defs>
			<path id="SVGID_101_" d="M185.1,278.4c0-0.5-0.4-1-0.9-1h-7.8h-5.6v23.2h14.3V278.4z"/>
		</defs>
		<clipPath id="SVGID_102_">
			<use xlink:href="#SVGID_101_"  style="overflow:visible;"/>
		</clipPath>
		<g class="st58">
			<defs>
				<rect id="SVGID_103_" x="-172.4" y="-1393.7" width="3431.7" height="1930.3"/>
			</defs>
			<clipPath id="SVGID_104_">
				<use xlink:href="#SVGID_103_"  style="overflow:visible;"/>
			</clipPath>
			<rect x="161.8" y="268.5" class="st59" width="32.2" height="41.1"/>
		</g>
	</g>
	<g>
		<defs>
			<path id="SVGID_105_" d="M244.9,277.4c-0.5,0-0.9,0.4-0.9,1v22.3h14.3v-23.2h-5.5H244.9z"/>
		</defs>
		<clipPath id="SVGID_106_">
			<use xlink:href="#SVGID_105_"  style="overflow:visible;"/>
		</clipPath>
		<g class="st60">
			<defs>
				<rect id="SVGID_107_" x="-172.4" y="-1393.7" width="3431.7" height="1930.3"/>
			</defs>
			<clipPath id="SVGID_108_">
				<use xlink:href="#SVGID_107_"  style="overflow:visible;"/>
			</clipPath>
			<rect x="235.1" y="268.5" class="st61" width="32.2" height="41.1"/>
		</g>
	</g>
	<g>
		<defs>
			<path id="SVGID_109_" d="M185.4,277.5c0.5,0,1,0.4,1,1v22.2h56.4v-22.2c0-0.5,0.4-1,1-1h8.6h6v-16.7v-4.1
				c0-18.2-12-32.8-30.1-32.8h-27.6c-18,0-29.9,14.6-29.9,32.8v3.8v17.1h6.1H185.4z"/>
		</defs>
		<clipPath id="SVGID_110_">
			<use xlink:href="#SVGID_109_"  style="overflow:visible;"/>
		</clipPath>
		<g class="st62">
			<defs>
				<rect id="SVGID_111_" x="-172.4" y="-1393.7" width="3431.7" height="1930.3"/>
			</defs>
			<clipPath id="SVGID_112_">
				<use xlink:href="#SVGID_111_"  style="overflow:visible;"/>
			</clipPath>
			<rect x="161.8" y="214.9" class="st63" width="105.5" height="94.7"/>
		</g>
	</g>
	<g>
		<defs>
			<path id="SVGID_113_" d="M213.7,250.6c-7.1-8.6-10.7-14.9-10.7-18.9v-18.7h21.4v18.7C224.4,235.8,220.8,242,213.7,250.6z"/>
		</defs>
		<clipPath id="SVGID_114_">
			<use xlink:href="#SVGID_113_"  style="overflow:visible;"/>
		</clipPath>
		<g class="st64">
			<defs>
				<rect id="SVGID_115_" x="-172.4" y="-1393.7" width="3431.7" height="1930.3"/>
			</defs>
			<clipPath id="SVGID_116_">
				<use xlink:href="#SVGID_115_"  style="overflow:visible;"/>
			</clipPath>
			<rect x="194" y="204.1" class="st65" width="39.3" height="55.4"/>
		</g>
	</g>
	<g>
		<defs>
			<path id="SVGID_117_" d="M201.9,214.9c-13.8,0-25.1-11.3-25.1-25.2c-2-30.1-0.1-52.6,5.8-67.4c8.7-22.2,55-26.3,65.3,0
				c6.9,17.5,8.6,40,5.1,67.4c0,13.9-11.2,25.2-25.1,25.2H201.9z"/>
		</defs>
		<clipPath id="SVGID_118_">
			<use xlink:href="#SVGID_117_"  style="overflow:visible;"/>
		</clipPath>
		<g class="st66">
			<defs>
				<rect id="SVGID_119_" x="-172.4" y="-1393.7" width="3431.7" height="1930.3"/>
			</defs>
			<clipPath id="SVGID_120_">
				<use xlink:href="#SVGID_119_"  style="overflow:visible;"/>
			</clipPath>
			<rect x="167.2" y="95.1" class="st67" width="96.5" height="128.7"/>
		</g>
	</g>
	<g>
		<defs>
			<path id="SVGID_121_" d="M183.3,156.8c0,4.4-3.6,8-8,8c-4.4,0-8-3.6-8-8c0-4.4,3.6-8,8-8C179.7,148.7,183.3,152.3,183.3,156.8"/>
		</defs>
		<clipPath id="SVGID_122_">
			<use xlink:href="#SVGID_121_"  style="overflow:visible;"/>
		</clipPath>
		<g class="st68">
			<defs>
				<rect id="SVGID_123_" x="-172.4" y="-1393.7" width="3431.7" height="1930.3"/>
			</defs>
			<clipPath id="SVGID_124_">
				<use xlink:href="#SVGID_123_"  style="overflow:visible;"/>
			</clipPath>
			<rect x="158.3" y="139.8" class="st69" width="34" height="34"/>
		</g>
	</g>
	<g>
		<defs>
			<path id="SVGID_125_" d="M261.9,156.8c0,4.4-3.6,8-8,8c-4.4,0-8-3.6-8-8c0-4.4,3.6-8,8-8C258.3,148.7,261.9,152.3,261.9,156.8"/>
		</defs>
		<clipPath id="SVGID_126_">
			<use xlink:href="#SVGID_125_"  style="overflow:visible;"/>
		</clipPath>
		<g class="st70">
			<defs>
				<rect id="SVGID_127_" x="-172.4" y="-1393.7" width="3431.7" height="1930.3"/>
			</defs>
			<clipPath id="SVGID_128_">
				<use xlink:href="#SVGID_127_"  style="overflow:visible;"/>
			</clipPath>
			<rect x="236.9" y="139.8" class="st71" width="34" height="34"/>
		</g>
	</g>
	<g>
		<defs>
			<path id="SVGID_129_" d="M202.9,184.7c0.1,3.9,5,7,10.9,6.9c5.9-0.1,10.6-3.3,10.5-7.1L202.9,184.7z"/>
		</defs>
		<clipPath id="SVGID_130_">
			<use xlink:href="#SVGID_129_"  style="overflow:visible;"/>
		</clipPath>
		<g class="st72">
			<defs>
				<rect id="SVGID_131_" x="-172.4" y="-1393.7" width="3431.7" height="1930.3"/>
			</defs>
			<clipPath id="SVGID_132_">
				<use xlink:href="#SVGID_131_"  style="overflow:visible;"/>
			</clipPath>
			<rect x="194" y="175.5" class="st73" width="39.3" height="25"/>
		</g>
	</g>
	<g>
		<defs>
			<path id="SVGID_133_" d="M199.9,216.8c7.2,5.2,20,4,25.4,0l2.7-3.7h-30.4L199.9,216.8z"/>
		</defs>
		<clipPath id="SVGID_134_">
			<use xlink:href="#SVGID_133_"  style="overflow:visible;"/>
		</clipPath>
		<g class="st74">
			<defs>
				<rect id="SVGID_135_" x="-172.4" y="-1393.7" width="3431.7" height="1930.3"/>
			</defs>
			<clipPath id="SVGID_136_">
				<use xlink:href="#SVGID_135_"  style="overflow:visible;"/>
			</clipPath>
			<rect x="188.6" y="204.1" class="st75" width="48.3" height="25"/>
		</g>
	</g>
	<g>
		<defs>
			<rect id="SVGID_137_" x="228" y="154.1" width="7.1" height="1.8"/>
		</defs>
		<clipPath id="SVGID_138_">
			<use xlink:href="#SVGID_137_"  style="overflow:visible;"/>
		</clipPath>
		<g class="st76">
			<defs>
				<rect id="SVGID_139_" x="-172.4" y="-1393.7" width="3431.7" height="1930.3"/>
			</defs>
			<clipPath id="SVGID_140_">
				<use xlink:href="#SVGID_139_"  style="overflow:visible;"/>
			</clipPath>
			<rect x="219" y="145.2" class="st77" width="25" height="19.7"/>
		</g>
	</g>
	<g>
		<defs>
			<rect id="SVGID_141_" x="194" y="154.1" width="7.1" height="1.8"/>
		</defs>
		<clipPath id="SVGID_142_">
			<use xlink:href="#SVGID_141_"  style="overflow:visible;"/>
		</clipPath>
		<g class="st78">
			<defs>
				<rect id="SVGID_143_" x="-172.4" y="-1393.7" width="3431.7" height="1930.3"/>
			</defs>
			<clipPath id="SVGID_144_">
				<use xlink:href="#SVGID_143_"  style="overflow:visible;"/>
			</clipPath>
			<rect x="185.1" y="145.2" class="st79" width="25" height="19.7"/>
		</g>
	</g>
	<g>
		<defs>
			<path id="SVGID_145_" d="M202.9,155c0,1.5-1.2,2.7-2.7,2.7c-1.5,0-2.7-1.2-2.7-2.7c0-1.5,1.2-2.7,2.7-2.7
				C201.7,152.3,202.9,153.5,202.9,155"/>
		</defs>
		<clipPath id="SVGID_146_">
			<use xlink:href="#SVGID_145_"  style="overflow:visible;"/>
		</clipPath>
		<g class="st80">
			<defs>
				<rect id="SVGID_147_" x="-172.4" y="-1393.7" width="3431.7" height="1930.3"/>
			</defs>
			<clipPath id="SVGID_148_">
				<use xlink:href="#SVGID_147_"  style="overflow:visible;"/>
			</clipPath>
			<rect x="188.6" y="143.4" class="st81" width="23.2" height="23.2"/>
		</g>
	</g>
	<g>
		<defs>
			<path id="SVGID_149_" d="M229.7,155c0,1.5-1.2,2.7-2.7,2.7c-1.5,0-2.7-1.2-2.7-2.7c0-1.5,1.2-2.7,2.7-2.7
				C228.5,152.3,229.7,153.5,229.7,155"/>
		</defs>
		<clipPath id="SVGID_150_">
			<use xlink:href="#SVGID_149_"  style="overflow:visible;"/>
		</clipPath>
		<g class="st82">
			<defs>
				<rect id="SVGID_151_" x="-172.4" y="-1393.7" width="3431.7" height="1930.3"/>
			</defs>
			<clipPath id="SVGID_152_">
				<use xlink:href="#SVGID_151_"  style="overflow:visible;"/>
			</clipPath>
			<rect x="215.5" y="143.4" class="st83" width="23.2" height="23.2"/>
		</g>
	</g>
	<line class="st84" x1="189.5" y1="277.4" x2="189.5" y2="300.6"/>
	<line class="st84" x1="243.2" y1="277.4" x2="243.2" y2="300.6"/>
</g>
</svg>
