<svg height="24" viewBox="0 0 24 24" width="24" xmlns="http://www.w3.org/2000/svg"><g fill="#232f3e" fill-rule="evenodd"><path d="m7 19h10v-9.24948635l2 1.17526845v10.0742179h-14v-10.0769388l2-1.17254755z"/><path d="m10 14h4v7h-4z"/><path d="m12 4.67194573-.52145-.3186639c-.4712546-.28798888-.6198207-.9034773-.3318318-1.37473184.0817521-.13377623.1898953-.24154906.3136386-.32071374l.0181932-.01111808c.0347886-.02125972.0703633-.0401404.1065342-.05668784.1285407-.05846951.2684385-.08931038.4098882-.09015587.0089254-.00000801.0069766-.00001556.0050276-.00001741.1400692-.00013316.2815456.02915915.4149158.09017328.0429669.01954439.0846647.04217582.1247274.06780592l8.9818068 5.48888192c.4712546.28798888.6198207.9034773.3318318 1.37473184s-.9034773.61982069-1.3747318.33183182l-8.47855-5.1813361-8.47854999 5.1813361c-.47125454.28798887-1.08674296.13942272-1.37473184-.33183182-.28798889-.47125454-.13942272-1.08674296.33183182-1.37473184l8.98180681-5.48888192z" fill-rule="nonzero"/></g></svg>