<svg height="48" viewBox="0 0 48 48" width="48" xmlns="http://www.w3.org/2000/svg" xmlns:xlink="http://www.w3.org/1999/xlink"><mask id="a" fill="#fff"><path d="m0 .000384h47.886345v47.2020605h-47.886345z" fill="#fff" fill-rule="evenodd"/></mask><path d="m30.423456 12.272832v.2304c-.87936-.18432-1.79328.06624-2.4576.672-.38592.36384-.9936.3456-1.35744-.03936-.08448-.0912-.15264-.19872-.19776-.31584-1.38528-3.62496-5.44704-5.44128-9.072-4.056-1.05024.40128-1.98816 1.04832-2.73504 1.8864-1.14624 1.26816-1.77984 2.9184-1.77696 4.6272 0 .41568-.26688.78336-.6624.912-1.7184.5568-3.0048 1.99392-3.3696 3.7632-.05856.3168-.08736.6384-.0864.96.01056 2.77056 2.25984 5.0112 5.0304 5.0112h15.0912c-.5184.68928-1.09728 1.33056-1.728 1.92h-13.43904c-3.81312.02688-6.92448-3.04128-6.95136-6.85344-.00288-.43776.03552-.87552.1152-1.30656v-.0576c.42336-2.23968 1.93056-4.12416 4.0224-5.0304.3792-4.6464 4.25664-8.2272 8.9184-8.2368 3.2736.00576 6.2832 1.79328 7.8528 4.6656.59232-.31488 1.24992-.4896 1.92-.5088.34176.56064.63648 1.14912.8832 1.7568zm12.74016 6.8448c-.03456 1.83744-.97152 3.53952-2.50656 4.5504-1.08768.76224-2.3616 1.21728-3.6864 1.3152h-1.05504c.2496-.62784.46752-1.26912.65184-1.92h.4032c.94752-.09024 1.85568-.42144 2.64-.96 1.01856-.66816 1.65984-1.77888 1.728-2.9952-.0048-1.89408-1.46976-3.46464-3.36-3.6-.25536-.03456-.49152-.16032-.66144-.3552-.16608-.20064-.24192-.4608-.21216-.72v-.0864c0-.39168-.11328-.77472-.3264-1.104-.21504-.94656-.50688-1.87488-.8736-2.7744 1.59264.3552 2.80992 1.64448 3.072 3.2544 2.48736.60672 4.23552 2.83584 4.2336 5.3952zm1.92 25.2672c-1.34304 1.3488-3.52512 1.35456-4.87488.01248-.0048-.00384-.00768-.00864-.01152-.01248l-12.26976-12.2496c1.91616-1.35552 3.54816-3.07392 4.8-5.0592l12.38496 12.48c1.30752 1.3488 1.29408 3.49632-.0288 4.8288zm-27.38016-10.9152c-8.70528 0-15.7632-7.05696-15.7632-15.7632 0-8.70528 7.05792-15.7632 15.7632-15.7632s15.7632 7.05792 15.7632 15.7632v.0096c-.01056 8.69952-7.06272 15.74784-15.7632 15.7536zm28.7424 4.6944-12.7872-12.83424c4.21536-8.81664.48576-19.37952-8.32992-23.59488s-19.37856-.48576-23.59392 8.32992-.48576 19.37952 8.32992 23.59392c2.38464 1.14048 4.99584 1.73184 7.63872 1.73088 2.9952.00768 5.94048-.75552 8.5536-2.21664l12.57696 12.57504c2.16576 2.0304 5.568 1.92192 7.5984-.24384 1.93344-2.06208 1.9392-5.2704.01344-7.34016z" fill="#527fff" fill-rule="evenodd" mask="url(#a)"/></svg>