<?xml version="1.0" encoding="utf-8"?>
<!-- Generator: Adobe Illustrator 24.1.2, SVG Export Plug-In . SVG Version: 6.00 Build 0)  -->
<svg version="1.1" id="Layer_1" xmlns="http://www.w3.org/2000/svg" xmlns:xlink="http://www.w3.org/1999/xlink" x="0px" y="0px"
	 viewBox="0 0 425 385" style="enable-background:new 0 0 425 385;" xml:space="preserve">
<style type="text/css">
	.st0{fill-rule:evenodd;clip-rule:evenodd;fill:#ECECEC;}
	.st1{fill-rule:evenodd;clip-rule:evenodd;fill:#BD5400;}
	.st2{fill-rule:evenodd;clip-rule:evenodd;fill:none;}
	.st3{enable-background:new    ;}
	.st4{clip-path:url(#SVGID_2_);}
	.st5{clip-path:url(#SVGID_4_);}
	.st6{clip-path:url(#SVGID_6_);fill:#E5AE85;}
	.st7{clip-path:url(#SVGID_8_);}
	.st8{clip-path:url(#SVGID_10_);}
	.st9{clip-path:url(#SVGID_12_);fill:#E5AE85;}
	.st10{clip-path:url(#SVGID_14_);}
	.st11{clip-path:url(#SVGID_16_);}
	.st12{clip-path:url(#SVGID_18_);fill:#00596F;}
	.st13{clip-path:url(#SVGID_20_);}
	.st14{clip-path:url(#SVGID_22_);fill:#E5AE85;}
	.st15{fill:#E5AE85;}
	.st16{fill-rule:evenodd;clip-rule:evenodd;fill:#D3976E;}
	.st17{fill-rule:evenodd;clip-rule:evenodd;fill:#272926;}
	.st18{fill-rule:evenodd;clip-rule:evenodd;fill:#FFFFFF;}
	.st19{clip-path:url(#SVGID_24_);}
	.st20{clip-path:url(#SVGID_26_);enable-background:new    ;}
	.st21{clip-path:url(#SVGID_28_);}
	.st22{clip-path:url(#SVGID_30_);fill:none;stroke:#4A4A4A;stroke-width:1.5523;stroke-miterlimit:10;}
	.st23{clip-path:url(#SVGID_32_);}
	.st24{clip-path:url(#SVGID_34_);enable-background:new    ;}
	.st25{clip-path:url(#SVGID_36_);}
	.st26{clip-path:url(#SVGID_38_);fill:none;stroke:#4A4A4A;stroke-width:1.5523;stroke-miterlimit:10;}
</style>
<ellipse transform="matrix(2.107403e-03 -1 1 2.107403e-03 30.0704 413.5525)" class="st0" cx="222.25" cy="191.71" rx="179.29" ry="179.25"/>
<path class="st1" d="M277.16,270.43h-117.6V137.8c0-28.91,20.85-52.35,46.57-52.35h24.46c25.72,0,46.57,23.44,46.57,52.35V270.43z"
	/>
<path class="st2" d="M188.7,278.53c0-0.54-0.47-0.97-1.04-0.97h-9.25h-6.63v23.09h16.92V278.53z"/>
<g class="st3">
	<g>
		<defs>
			<rect id="SVGID_1_" x="245.52" y="273.93" width="27" height="27"/>
		</defs>
		<clipPath id="SVGID_2_">
			<use xlink:href="#SVGID_1_"  style="overflow:visible;"/>
		</clipPath>
		<g class="st4">
			<defs>
				<path id="SVGID_3_" d="M251.06,277.56c-0.58,0-1.04,0.44-1.04,0.97v22.12h16.92v-23.09h-6.5H251.06z"/>
			</defs>
			<clipPath id="SVGID_4_">
				<use xlink:href="#SVGID_3_"  style="overflow:visible;"/>
			</clipPath>
			<g class="st5">
				<defs>
					<rect id="SVGID_5_" x="245.52" y="273.93" width="27" height="27"/>
				</defs>
				<clipPath id="SVGID_6_">
					<use xlink:href="#SVGID_5_"  style="overflow:visible;"/>
				</clipPath>
				<rect x="216.27" y="243.81" class="st6" width="84.42" height="90.6"/>
			</g>
		</g>
	</g>
</g>
<g class="st3">
	<g>
		<defs>
			<rect id="SVGID_7_" x="167.52" y="273.93" width="27" height="27"/>
		</defs>
		<clipPath id="SVGID_8_">
			<use xlink:href="#SVGID_7_"  style="overflow:visible;"/>
		</clipPath>
		<g class="st7">
			<defs>
				<path id="SVGID_9_" d="M173.06,277.56c-0.58,0-1.04,0.44-1.04,0.97v22.12h16.92v-23.09h-6.5H173.06z"/>
			</defs>
			<clipPath id="SVGID_10_">
				<use xlink:href="#SVGID_9_"  style="overflow:visible;"/>
			</clipPath>
			<g class="st8">
				<defs>
					<rect id="SVGID_11_" x="167.52" y="273.93" width="27" height="27"/>
				</defs>
				<clipPath id="SVGID_12_">
					<use xlink:href="#SVGID_11_"  style="overflow:visible;"/>
				</clipPath>
				<rect x="138.27" y="243.81" class="st9" width="84.42" height="90.6"/>
			</g>
		</g>
	</g>
</g>
<rect x="250.02" y="277.56" class="st2" width="16.92" height="23.09"/>
<g class="st3">
	<g>
		<defs>
			<rect id="SVGID_13_" x="171.26" y="219.93" width="101.26" height="81.01"/>
		</defs>
		<clipPath id="SVGID_14_">
			<use xlink:href="#SVGID_13_"  style="overflow:visible;"/>
		</clipPath>
		<g class="st10">
			<defs>
				<path id="SVGID_15_" d="M187.66,277.56c0.58,0,1.04,0.44,1.04,0.97v22.12h61.32v-22.12c0-0.54,0.47-0.97,1.04-0.97h9.37h6.5
					v-16.83v-4.15c0-18.27-13.09-32.98-32.65-32.98H204.3c-19.56,0-32.51,14.7-32.51,32.98v3.83v17.15h6.63H187.66z"/>
			</defs>
			<clipPath id="SVGID_16_">
				<use xlink:href="#SVGID_15_"  style="overflow:visible;"/>
			</clipPath>
			<g class="st11">
				<defs>
					<rect id="SVGID_17_" x="171.26" y="219.93" width="101.26" height="81.01"/>
				</defs>
				<clipPath id="SVGID_18_">
					<use xlink:href="#SVGID_17_"  style="overflow:visible;"/>
				</clipPath>
				<rect x="138.03" y="189.85" class="st12" width="162.65" height="144.56"/>
			</g>
		</g>
	</g>
</g>
<rect x="171.79" y="223.6" class="st2" width="95.15" height="77.05"/>
<g>
	<defs>
		<path id="SVGID_19_" d="M228.82,211.83h-18.91c-1.06,0-1.92,0.86-1.92,1.91v1.8c2.22,1.14,5.74,1.99,11.37,1.99
			c5.51,0,9.07-1.02,11.37-2.43v-1.37C230.73,212.69,229.87,211.83,228.82,211.83"/>
	</defs>
	<clipPath id="SVGID_20_">
		<use xlink:href="#SVGID_19_"  style="overflow:visible;"/>
	</clipPath>
	<g class="st13">
		<defs>
			<rect id="SVGID_21_" x="-827.82" y="-4188.19" width="12961.07" height="7290.6"/>
		</defs>
		<clipPath id="SVGID_22_">
			<use xlink:href="#SVGID_21_"  style="overflow:visible;"/>
		</clipPath>
		<rect x="174.24" y="178.08" class="st14" width="90.25" height="73.21"/>
	</g>
</g>
<path class="st15" d="M263.56,155.56C263.56,155.56,263.56,155.56,263.56,155.56l0-22.09c-40.81,12.65-59.33,10.47-85.63-1.61
	c-3.93,11.13-3.14,21.2-2.85,23.7c-4.36,0.04-7.88,3.58-7.88,7.94c0,4.39,3.56,7.94,7.95,7.94c0.01,0,0.01,0,0.02,0
	c0.4,20.06,14.19,36.82,32.81,41.76v18.15c0,6.27,5.09,11.36,11.37,11.36c6.28,0,11.37-5.09,11.37-11.36V213.2
	c18.62-4.94,32.41-21.71,32.81-41.76c0.01,0,0.02,0,0.02,0c4.39,0,7.95-3.55,7.95-7.94C271.52,159.11,267.95,155.56,263.56,155.56z"
	/>
<path class="st16" d="M219.36,178.69c2.31,0,4.18-1.87,4.18-4.18h-8.36C215.18,176.82,217.05,178.69,219.36,178.69"/>
<path class="st17" d="M203.78,159.75c0,1.58-1.28,2.85-2.86,2.85c-1.58,0-2.86-1.28-2.86-2.85c0-1.58,1.28-2.85,2.86-2.85
	C202.5,156.89,203.78,158.17,203.78,159.75"/>
<path class="st18" d="M208.61,190.44c0.11,4.29,5.02,7.7,10.96,7.62c5.94-0.08,10.66-3.63,10.54-7.92L208.61,190.44z"/>
<g>
	<defs>
		<path id="SVGID_23_" d="M182.44,149.33h27.46c2.89,0,5.24,2.35,5.24,5.24v12.23c0,2.89-2.35,5.24-5.24,5.24h-27.46
			c-2.89,0-5.24-2.35-5.24-5.24v-12.23C177.2,151.67,179.54,149.33,182.44,149.33z"/>
	</defs>
	<clipPath id="SVGID_24_">
		<use xlink:href="#SVGID_23_"  style="overflow:visible;"/>
	</clipPath>
	<g class="st19">
		<defs>
			<rect id="SVGID_25_" x="-827.82" y="-4188.19" width="12961.07" height="7290.6"/>
		</defs>
		<clipPath id="SVGID_26_">
			<use xlink:href="#SVGID_25_"  style="overflow:visible;"/>
		</clipPath>
		<g class="st20">
			<g>
				<defs>
					<rect id="SVGID_27_" x="124.01" y="91.67" width="148.51" height="135.01"/>
				</defs>
				<clipPath id="SVGID_28_">
					<use xlink:href="#SVGID_27_"  style="overflow:visible;"/>
				</clipPath>
				<g class="st21">
					<defs>
						<rect id="SVGID_29_" x="171.26" y="145.67" width="47.25" height="27"/>
					</defs>
					<clipPath id="SVGID_30_">
						<use xlink:href="#SVGID_29_"  style="overflow:visible;"/>
					</clipPath>
					<path class="st22" d="M182.44,149.33h27.46c2.89,0,5.24,2.35,5.24,5.24v12.23c0,2.89-2.35,5.24-5.24,5.24h-27.46
						c-2.89,0-5.24-2.35-5.24-5.24v-12.23C177.2,151.67,179.54,149.33,182.44,149.33z"/>
				</g>
			</g>
		</g>
	</g>
</g>
<g>
	<defs>
		<path id="SVGID_31_" d="M227.99,149.33h27.46c2.89,0,5.24,2.35,5.24,5.24v12.23c0,2.89-2.35,5.24-5.24,5.24h-27.46
			c-2.89,0-5.24-2.35-5.24-5.24v-12.23C222.75,151.67,225.1,149.33,227.99,149.33z"/>
	</defs>
	<clipPath id="SVGID_32_">
		<use xlink:href="#SVGID_31_"  style="overflow:visible;"/>
	</clipPath>
	<g class="st23">
		<defs>
			<rect id="SVGID_33_" x="-827.82" y="-4188.19" width="12961.07" height="7290.6"/>
		</defs>
		<clipPath id="SVGID_34_">
			<use xlink:href="#SVGID_33_"  style="overflow:visible;"/>
		</clipPath>
		<g class="st24">
			<g>
				<defs>
					<rect id="SVGID_35_" x="164.51" y="91.67" width="155.26" height="135.01"/>
				</defs>
				<clipPath id="SVGID_36_">
					<use xlink:href="#SVGID_35_"  style="overflow:visible;"/>
				</clipPath>
				<g class="st25">
					<defs>
						<rect id="SVGID_37_" x="218.51" y="145.67" width="47.25" height="27"/>
					</defs>
					<clipPath id="SVGID_38_">
						<use xlink:href="#SVGID_37_"  style="overflow:visible;"/>
					</clipPath>
					<path class="st26" d="M227.99,149.33h27.46c2.89,0,5.24,2.35,5.24,5.24v12.23c0,2.89-2.35,5.24-5.24,5.24h-27.46
						c-2.89,0-5.24-2.35-5.24-5.24v-12.23C222.75,151.67,225.1,149.33,227.99,149.33z"/>
				</g>
			</g>
		</g>
	</g>
</g>
<path class="st17" d="M241.72,159.75c0,1.58-1.28,2.85-2.86,2.85c-1.58,0-2.86-1.28-2.86-2.85c0-1.58,1.28-2.85,2.86-2.85
	C240.44,156.89,241.72,158.17,241.72,159.75"/>
</svg>
