<svg height="264" viewBox="0 0 602 264" width="602" xmlns="http://www.w3.org/2000/svg" xmlns:xlink="http://www.w3.org/1999/xlink"><linearGradient id="a"><stop offset="0" stop-color="#232f3d"/><stop offset="1" stop-color="#283646"/></linearGradient><linearGradient id="b" x1="49.999502%" x2="49.999502%" xlink:href="#a" y1="-7.112828%" y2="90.215316%"/><linearGradient id="c" x1="49.999502%" x2="49.999502%" xlink:href="#a" y1="7.838856%" y2="97.91297%"/><linearGradient id="d" x1="50.000198%" x2="50.000198%" xlink:href="#a" y1=".485624%" y2="65.418772%"/><linearGradient id="e" x1="50.000198%" x2="50.000198%" xlink:href="#a" y1=".485628%" y2="88.766158%"/><linearGradient id="f" x1="50.000736%" x2="50.000736%" xlink:href="#a" y1="-7.112828%" y2="90.215316%"/><linearGradient id="g" x1="50.000736%" x2="50.000736%" xlink:href="#a" y1="7.838856%" y2="97.91297%"/><linearGradient id="h" x1="49.999655%" x2="49.999655%" xlink:href="#a" y1="-.844875%" y2="64.088273%"/><linearGradient id="i" x1="49.998766%" x2="49.998766%" xlink:href="#a" y1="-.845091%" y2="87.435632%"/><linearGradient id="j" x1="49.999462%" x2="49.999462%" xlink:href="#a" y1="-7.112828%" y2="90.215316%"/><linearGradient id="k" x1="49.999462%" x2="49.999462%" xlink:href="#a" y1="7.838856%" y2="97.91297%"/><linearGradient id="l" x1="50.000158%" x2="50.000158%" xlink:href="#a" y1="-.844875%" y2="64.088273%"/><linearGradient id="m" x1="50.000158%" x2="50.000158%" xlink:href="#a" y1="-15.306578%" y2="74.767536%"/><linearGradient id="n" x1="49.999461%" x2="49.999461%" xlink:href="#a" y1="-7.112828%" y2="90.215316%"/><linearGradient id="o" x1="49.999461%" x2="49.999461%" xlink:href="#a" y1="7.838856%" y2="97.91297%"/><linearGradient id="p" x1="50.000171%" x2="50.000171%" xlink:href="#a" y1=".485624%" y2="65.418772%"/><linearGradient id="q" x1="50.000171%" x2="50.000171%" xlink:href="#a" y1=".485628%" y2="88.766158%"/><linearGradient id="r" x1="49.999709%" x2="49.999709%" xlink:href="#a" y1="-.844875%" y2="64.088273%"/><linearGradient id="s" x1="49.999709%" x2="49.999709%" xlink:href="#a" y1="-.844871%" y2="87.43566%"/><linearGradient id="t" x1="49.999571%" x2="49.999571%" xlink:href="#a" y1="-7.112828%" y2="90.215316%"/><linearGradient id="u" x1="49.999571%" x2="49.999571%" xlink:href="#a" y1="7.838856%" y2="97.91297%"/><linearGradient id="v" x1="50.000266%" x2="50.000266%" xlink:href="#a" y1="-.844875%" y2="64.088273%"/><linearGradient id="w" x1="50.000266%" x2="50.000266%" xlink:href="#a" y1="-15.306326%" y2="74.767591%"/><g fill="none" fill-rule="evenodd"><path d="m0 0h602v264h-602z" fill="#232f3e"/><g transform="translate(299 -1)"><path d="m26.4849524 30.150116v189.051095l25.4867639-14.463774v-189.0506501z" fill="url(#b)"/><path d="m.99990943 15.6866979 25.48495237 14.4633291 25.4867639-14.4633291-25.4867639-14.46199371z" fill="#2c3a4b"/></g><g transform="translate(300 86.801341)"><path d="m25.4849524 29.1456647v148.0986583l25.4867639-.045664v-162.5163234z" fill="url(#c)"/><path d="m-.00009057 14.6823356 25.48495237 14.4633291 25.4867639-14.4633291-25.4867639-14.46199373z" fill="#2c3a4b"/></g><g transform="translate(350 44)"><path d="m25.3698276 29.7975721v189.1699129l25.228069-14.472865v-189.1694672z" fill="url(#d)"/><path d="m1 15.4993306 24.9993336 14.5006694 25.0006664-14.5006694-25.0006664-14.4993306z" fill="#2c3a4b"/></g><g transform="translate(351 132)"><path d="m24.3698276 28.7935633v103.2064367h25.228069v-117.6793013z" fill="url(#e)"/><path d="m0 14.4993306 24.9993336 14.5006694 25.0006664-14.5006694-25.0006664-14.4993306z" fill="#2c3a4b"/></g><g transform="translate(400)"><path d="m26.2785088 29.9556209v189.6830611l24.6833333-14.512124v-189.6826146z" fill="url(#f)"/><path d="m1 15.4993306 24.9991115 14.5006694 25.0008885-14.5006694-25.0008885-14.4993306z" fill="#2c3a4b"/></g><g transform="translate(401 88)"><path d="m25.2785088 28.9511547v147.0488453h24.6833333v-161.5605229z" fill="url(#g)"/><path d="m0 14.4993306 24.9991115 14.5006694 25.0008885-14.5006694-25.0008885-14.4993306z" fill="#2c3a4b"/></g><g transform="translate(451 48)"><path d="m25.0820175 28.8747821v179.6830609l24.6833334-14.512124v-179.6826144z" fill="url(#h)"/><path d="m0 14.4993306 24.9993336 14.5006694 25.0006664-14.5006694-25.0006664-14.4993306z" fill="#2c3a4b"/></g><g transform="translate(451 134)"><path d="m25.0824561 29.8431727v100.1568273h24.6828948v-114.6415705z" fill="url(#i)"/><path d="m0 14.4993306 24.9993336 14.5006694 25.0006664-14.5006694-25.0006664-14.4993306z" fill="#2c3a4b"/></g><g transform="translate(500)"><path d="m26.3312759 29.9556209v189.6830611l25.2276207-14.512124v-189.6826146z" fill="url(#j)"/><path d="m1 15.4993306 24.9993336 14.5006694 25.0006664-14.5006694-25.0006664-14.4993306z" fill="#2c3a4b"/></g><g transform="translate(501 88)"><path d="m25.3312759 28.9511547v147.0488453h25.2276207v-161.5605229z" fill="url(#k)"/><path d="m0 14.4993306 24.9993336 14.5006694 25.0006664-14.5006694-25.0006664-14.4993306z" fill="#2c3a4b"/></g><g transform="translate(552 48)"><path d="m25.127193 28.8747821v179.6830609l24.6828947-14.512124v-179.6826144z" fill="url(#l)"/><path d="m0 14.4993306 24.9993336 14.5006694 25.0006664-14.5006694-25.0006664-14.4993306z" fill="#2c3a4b"/></g><g transform="translate(552 134)"><path d="m25.127193 29.8431727v100.1568273h24.6828947v-114.6415705z" fill="url(#m)"/><path d="m0 14.4993306 24.9993336 14.5006694 25.0006664-14.5006694-25.0006664-14.4993306z" fill="#2c3a4b"/></g><path d="m25.122003 29.8982539v188.9554711l25.0586952-14.456458v-188.9550265z" fill="url(#n)"/><path d="m.0649997 15.4421515 25.0569142 14.4560134 25.0586953-14.4560134-25.0586953-14.45467869z" fill="#2c3a4b"/><g transform="translate(0 87)"><path d="m25.122003 29.8938048-.122003 146.8535772h25.1804756l.0002226-161.3095906z" fill="url(#o)"/><path d="m.0649997 15.4377914 25.0569142 14.4560134 25.0586953-14.4560134-25.0586953-14.45467871z" fill="#2c3a4b"/></g><g transform="translate(49 45)"><path d="m26.3673447 29.7807977v188.9554713l25.0586952-14.456458v-188.9550268z" fill="url(#p)"/><path d="m1.31065311 15.3248287 25.05691419 14.4560134 25.05825-14.4560134-25.05825-14.45467864z" fill="#2c3a4b"/></g><g transform="translate(50 132)"><path d="m25.3673447 29.7767935v102.2232065h25.0586952v-116.6796649z" fill="url(#q)"/><path d="m.31065311 15.3204686 25.05691419 14.4560134 25.05825-14.4560134-25.05825-14.45467865z" fill="#2c3a4b"/></g><g transform="translate(99)"><path d="m26.2827441 29.8982539v188.9554711l25.0586952-14.456458v-188.9550265z" fill="url(#f)"/><path d="m1.22609704 15.4421515 25.05691416 14.4560134 25.0586953-14.4560134-25.0586953-14.45467869z" fill="#2c3a4b"/></g><g transform="translate(100 87)"><path d="m25.2827441 29.8938048v146.8535772h25.0586952v-161.3095906z" fill="url(#g)"/><path d="m.22609704 15.4377914 25.05691416 14.4560134 25.0586953-14.4560134-25.0586953-14.45467871z" fill="#2c3a4b"/></g><g transform="translate(150 48)"><path d="m25.0832648 29.8177252v178.9554708l25.0586953-14.456458v-178.9550262z" fill="url(#r)"/><path d="m.02648417 15.3617563 25.05691423 14.4560134 25.05825-14.4560134-25.05825-14.45467871z" fill="#2c3a4b"/></g><g transform="translate(150 134)"><path d="m25.0832648 29.813721v99.773208h25.0586953v-114.2296663z" fill="url(#s)"/><path d="m.02648417 15.3573961 25.05691423 14.4560135 25.05825-14.4560135-25.05825-14.45467863z" fill="#2c3a4b"/></g><g transform="translate(199)"><path d="m26.3290518 29.8982539v188.9554711l25.05825-14.456458v-188.9550265z" fill="url(#t)"/><path d="m1.27195947 15.4421515 25.05691423 14.4560134 25.05825-14.4560134-25.05825-14.45467869z" fill="#2c3a4b"/></g><g transform="translate(200 87)"><path d="m25.3290518 29.8938048v146.8535772h25.05825v-161.3095906z" fill="url(#u)"/><path d="m.27195947 15.4377914 25.05691423 14.4560134 25.05825-14.4560134-25.05825-14.45467871z" fill="#2c3a4b"/></g><g transform="translate(251 48)"><path d="m25.1291272 29.8177252v178.9554708l25.05825-14.456458v-178.9550262z" fill="url(#v)"/><path d="m.07216849 15.3617563 25.05691421 14.4560134 25.05825-14.4560134-25.05825-14.45467871z" fill="#2c3a4b"/></g><g transform="translate(251 134)"><path d="m25.1291272 29.813721v99.773208h25.05825v-114.2296663z" fill="url(#w)"/><path d="m.07216849 15.3573961 25.05691421 14.4560135 25.05825-14.4560135-25.05825-14.45467863z" fill="#2c3a4b"/></g></g></svg>