<?xml version="1.0" encoding="utf-8"?>
<!-- Generator: Adobe Illustrator 24.1.2, SVG Export Plug-In . SVG Version: 6.00 Build 0)  -->
<svg version="1.1" id="Layer_1" xmlns="http://www.w3.org/2000/svg" xmlns:xlink="http://www.w3.org/1999/xlink" x="0px" y="0px"
	 viewBox="0 0 1366 768" style="enable-background:new 0 0 1366 768;" xml:space="preserve">
<style type="text/css">
	.st0{fill-rule:evenodd;clip-rule:evenodd;fill:#F89628;}
</style>
<g>
	<path d="M1141.4,390.1c0,2.3,0.2,4.1,0.7,5.5c0.5,1.4,1.1,2.8,2,4.4c0.3,0.5,0.4,1,0.4,1.4c0,0.6-0.4,1.2-1.2,1.8l-3.9,2.6
		c-0.6,0.4-1.1,0.5-1.6,0.5c-0.6,0-1.3-0.3-1.8-0.9c-0.9-0.9-1.6-1.8-2.2-2.8c-0.6-1-1.2-2.2-1.9-3.6c-4.8,5.7-10.8,8.5-18,8.5
		c-5.2,0-9.2-1.5-12.2-4.4c-3-2.9-4.5-6.9-4.5-11.8c0-5.2,1.9-9.4,5.6-12.6c3.7-3.2,8.7-4.8,15-4.8c2.1,0,4.2,0.2,6.5,0.5
		c2.3,0.3,4.6,0.8,7,1.3v-4.5c0-4.7-1-7.9-2.9-9.8c-1.9-1.9-5.3-2.8-10-2.8c-2.1,0-4.4,0.3-6.6,0.8c-2.3,0.5-4.5,1.2-6.6,2.1
		c-1,0.4-1.7,0.7-2.1,0.8c-0.4,0.1-0.8,0.2-1,0.2c-0.9,0-1.3-0.6-1.3-1.9v-3c0-1,0.1-1.7,0.4-2.1c0.3-0.4,0.9-0.9,1.7-1.3
		c2.1-1.1,4.7-2,7.7-2.8c3-0.8,6.2-1.2,9.6-1.2c7.3,0,12.7,1.7,16.1,5c3.4,3.3,5.1,8.4,5.1,15.1V390.1 M1116.5,399.4
		c2,0,4.1-0.4,6.3-1.1c2.2-0.8,4.1-2.1,5.8-3.9c1-1.1,1.7-2.5,2.1-3.9c0.4-1.5,0.6-3.2,0.6-5.3v-2.6c-1.8-0.4-3.7-0.8-5.6-1
		c-2-0.3-3.9-0.4-5.8-0.4c-4.1,0-7.1,0.8-9.1,2.5c-2,1.6-3,4-3,7.1c0,2.9,0.8,5,2.3,6.5C1111.6,398.7,1113.7,399.4,1116.5,399.4
		 M1165.8,406.1c-1.1,0-1.9-0.2-2.4-0.6c-0.5-0.4-0.9-1.2-1.3-2.4l-14.4-47.5c-0.4-1.2-0.5-2-0.5-2.5c0-1,0.5-1.5,1.5-1.5h6
		c1.1,0,1.9,0.2,2.4,0.6c0.5,0.4,0.9,1.2,1.2,2.4l10.3,40.6l9.6-40.6c0.3-1.2,0.7-2,1.2-2.4c0.5-0.4,1.3-0.6,2.5-0.6h4.9
		c1.1,0,2,0.2,2.5,0.6c0.5,0.4,0.9,1.2,1.2,2.4l9.7,41.1l10.6-41.1c0.4-1.2,0.8-2,1.2-2.4c0.5-0.4,1.3-0.6,2.4-0.6h5.7
		c1,0,1.5,0.5,1.5,1.5c0,0.3,0,0.6-0.1,1c-0.1,0.4-0.2,0.9-0.4,1.5l-14.8,47.5c-0.4,1.2-0.8,2-1.3,2.4c-0.5,0.4-1.3,0.6-2.4,0.6
		h-5.3c-1.1,0-2-0.2-2.5-0.6c-0.5-0.4-0.9-1.3-1.2-2.5l-9.6-39.5l-9.4,39.5c-0.3,1.2-0.7,2-1.2,2.5c-0.5,0.4-1.3,0.6-2.5,0.6H1165.8
		z M1244.7,407.7c-3.2,0-6.4-0.4-9.5-1.1c-3.1-0.7-5.4-1.5-7.1-2.5c-1-0.6-1.6-1.1-1.9-1.7c-0.3-0.6-0.4-1.1-0.4-1.7v-3.1
		c0-1.3,0.5-1.9,1.4-1.9c0.4,0,0.7,0.1,1.1,0.2c0.4,0.1,0.9,0.4,1.6,0.6c2.1,0.9,4.3,1.6,6.8,2.1c2.4,0.5,4.9,0.8,7.3,0.8
		c3.9,0,6.9-0.7,9-2c2.1-1.4,3.2-3.3,3.2-5.8c0-1.7-0.6-3.1-1.7-4.3c-1.1-1.1-3.2-2.2-6.2-3.2l-8.9-2.8c-4.5-1.4-7.8-3.5-9.8-6.2
		c-2-2.7-3.1-5.7-3.1-8.9c0-2.6,0.6-4.8,1.7-6.8c1.1-2,2.6-3.7,4.4-5.1c1.8-1.4,4-2.4,6.4-3.2c2.4-0.7,5-1.1,7.7-1.1
		c1.4,0,2.7,0.1,4.1,0.3c1.4,0.2,2.7,0.4,4,0.7c1.3,0.3,2.4,0.6,3.5,1c1.1,0.4,1.9,0.7,2.6,1.1c0.9,0.5,1.5,1,1.8,1.5
		c0.4,0.5,0.5,1.2,0.5,2v2.9c0,1.3-0.5,1.9-1.4,1.9c-0.5,0-1.3-0.3-2.4-0.7c-3.5-1.6-7.4-2.4-11.8-2.4c-3.5,0-6.2,0.6-8.2,1.7
		c-1.9,1.1-2.9,3-2.9,5.5c0,1.7,0.6,3.2,1.8,4.3c1.2,1.2,3.5,2.3,6.8,3.4l8.7,2.8c4.4,1.4,7.6,3.4,9.5,5.9c1.9,2.5,2.8,5.4,2.8,8.6
		c0,2.7-0.5,5-1.6,7.1c-1.1,2.1-2.6,3.9-4.5,5.4c-1.9,1.5-4.2,2.6-6.8,3.4C1250.7,407.3,1247.8,407.7,1244.7,407.7"/>
	<path class="st0" d="M1256.3,437.9c-20.2,14.9-49.5,22.8-74.7,22.8c-35.4,0-67.2-13.1-91.3-34.8c-1.9-1.7-0.2-4,2.1-2.7
		c26,15.1,58.1,24.2,91.3,24.2c22.4,0,47-4.6,69.7-14.3C1256.7,431.8,1259.6,435.5,1256.3,437.9"/>
	<path class="st0" d="M1264.7,428.3c-2.6-3.3-17.1-1.6-23.6-0.8c-2,0.2-2.3-1.5-0.5-2.7c11.6-8.1,30.5-5.8,32.7-3.1
		c2.2,2.7-0.6,21.7-11.4,30.8c-1.7,1.4-3.3,0.7-2.5-1.2C1261.8,445.3,1267.3,431.6,1264.7,428.3"/>
	<g>
		<path d="M900.9,386.9c-0.6,0-1-0.3-1-1v-29.1c0-0.6,0.3-1,1-1h2.4c0.6,0,1,0.3,1.1,0.9l0.3,1.3c1-0.9,2.1-1.6,3.4-2.1
			c1.2-0.5,2.5-0.7,3.8-0.7c2.7,0,4.9,1,6.6,3.1c1.6,2,2.4,4.8,2.4,8.3c0,2.4-0.4,4.5-1.2,6.3c-0.8,1.8-1.9,3.2-3.3,4.1
			c-1.4,1-3,1.4-4.8,1.4c-1.2,0-2.4-0.2-3.5-0.6c-1.1-0.4-2.1-1-2.9-1.8v9.9c0,0.6-0.3,1-1,1H900.9z M910.2,374.5
			c1.8,0,3.2-0.6,4.1-1.9c0.9-1.3,1.3-3.2,1.3-5.7c0-2.5-0.4-4.4-1.3-5.7c-0.9-1.2-2.2-1.8-4.1-1.8c-1.9,0-3.6,0.5-5.2,1.6v11.8
			C906.7,373.9,908.4,374.5,910.2,374.5z"/>
		<path d="M935.5,378.7c-3.3,0-6-1-7.8-3.1c-1.9-2.1-2.8-4.9-2.8-8.6c0-3.7,0.9-6.5,2.8-8.6c1.9-2,4.5-3.1,7.8-3.1
			c3.3,0,6,1,7.8,3.1c1.9,2,2.8,4.9,2.8,8.6c0,3.7-0.9,6.5-2.8,8.6C941.5,377.6,938.9,378.7,935.5,378.7z M935.5,374.6
			c3.6,0,5.5-2.6,5.5-7.7c0-5.1-1.8-7.6-5.5-7.6c-3.6,0-5.5,2.5-5.5,7.6C930.1,372.1,931.9,374.6,935.5,374.6z"/>
		<path d="M956.2,378c-0.7,0-1.1-0.3-1.3-0.9l-6.4-19.7c-0.1-0.4-0.2-0.7-0.2-0.9c0-0.4,0.3-0.6,0.8-0.6h3.5c0.6,0,1,0.3,1.1,0.8
			l4.1,16l4.2-15.9c0.1-0.3,0.2-0.6,0.4-0.7c0.2-0.1,0.5-0.2,0.8-0.2h2.9c0.4,0,0.6,0.1,0.8,0.2c0.2,0.1,0.3,0.4,0.4,0.7l4.2,16.2
			l4.3-16.3c0.1-0.5,0.5-0.8,1.1-0.8h3.2c0.5,0,0.8,0.2,0.8,0.6c0,0.1-0.1,0.4-0.2,0.9l-6.5,19.7c-0.2,0.6-0.6,0.9-1.3,0.9h-3
			c-0.3,0-0.6-0.1-0.8-0.2c-0.2-0.1-0.3-0.4-0.4-0.7l-4.1-15.6l-4.1,15.6c-0.1,0.3-0.2,0.6-0.4,0.7c-0.2,0.1-0.5,0.2-0.8,0.2H956.2z
			"/>
		<path d="M994.2,378.7c-3.6,0-6.4-1-8.3-2.9c-1.9-2-2.8-4.8-2.8-8.6c0-3.7,0.9-6.6,2.7-8.7c1.8-2.1,4.4-3.1,7.7-3.1
			c2.8,0,5,0.8,6.5,2.3c1.5,1.5,2.3,3.7,2.3,6.6c0,1-0.1,2-0.2,3.1c-0.1,0.4-0.2,0.6-0.3,0.8c-0.2,0.1-0.4,0.2-0.6,0.2h-13.3
			c0.1,2.2,0.7,3.8,1.8,4.8c1.1,1,2.9,1.5,5.3,1.5c1.7,0,3.6-0.3,5.5-0.8c0.2-0.1,0.4-0.1,0.5-0.1c0.1,0,0.2,0,0.3,0
			c0.4,0,0.6,0.3,0.6,0.9v1.6c0,0.4-0.1,0.7-0.2,0.9c-0.1,0.2-0.4,0.4-0.9,0.5C998.8,378.3,996.7,378.7,994.2,378.7z M997.8,364.8
			v-0.3c0-1.8-0.4-3.1-1.1-4c-0.8-0.9-1.9-1.4-3.4-1.4c-1.6,0-2.8,0.5-3.8,1.6c-1,1-1.5,2.4-1.7,4.2H997.8z"/>
		<path d="M1008.3,378c-0.6,0-1-0.3-1-1v-20.1c0-0.6,0.3-1,1-1h2.3c0.4,0,0.7,0.1,0.8,0.2c0.2,0.1,0.3,0.3,0.3,0.6l0.5,2.5
			c1.2-1.3,2.2-2.2,3.2-2.7c1-0.5,2.1-0.8,3.3-0.8h0.2c0.4,0,0.7,0,0.9,0.1c0.2,0.1,0.4,0.2,0.5,0.4c0.1,0.2,0.2,0.5,0.2,1v2.3
			c0,0.6-0.3,0.9-0.8,0.9c-0.2,0-0.4,0-0.7,0c-0.3,0-0.6,0-1,0c-2.1,0-4,0.5-5.7,1.6v15c0,0.6-0.3,1-1,1H1008.3z"/>
		<path d="M1034,378.7c-3.6,0-6.4-1-8.3-2.9c-1.9-2-2.8-4.8-2.8-8.6c0-3.7,0.9-6.6,2.7-8.7c1.8-2.1,4.4-3.1,7.7-3.1
			c2.8,0,5,0.8,6.5,2.3c1.5,1.5,2.3,3.7,2.3,6.6c0,1-0.1,2-0.2,3.1c-0.1,0.4-0.2,0.6-0.3,0.8c-0.2,0.1-0.4,0.2-0.6,0.2h-13.3
			c0.1,2.2,0.7,3.8,1.8,4.8c1.1,1,2.9,1.5,5.3,1.5c1.7,0,3.6-0.3,5.5-0.8c0.2-0.1,0.4-0.1,0.5-0.1c0.1,0,0.2,0,0.3,0
			c0.4,0,0.6,0.3,0.6,0.9v1.6c0,0.4-0.1,0.7-0.2,0.9c-0.1,0.2-0.4,0.4-0.9,0.5C1038.6,378.3,1036.4,378.7,1034,378.7z M1037.6,364.8
			v-0.3c0-1.8-0.4-3.1-1.1-4c-0.8-0.9-1.9-1.4-3.4-1.4c-1.6,0-2.8,0.5-3.8,1.6c-1,1-1.5,2.4-1.7,4.2H1037.6z"/>
		<path d="M1055.1,378.5c-2.8,0-5-1-6.6-3.1c-1.7-2.1-2.5-4.8-2.5-8.3c0-2.4,0.4-4.5,1.2-6.3c0.8-1.8,1.9-3.1,3.3-4.1
			c1.4-0.9,3-1.4,4.9-1.4c2.3,0,4.4,0.8,6.3,2.3v-10.7c0-0.6,0.3-1,1-1h3.2c0.6,0,1,0.3,1,1v30.1c0,0.6-0.3,1-1,1h-2.5
			c-0.6,0-1-0.3-1.1-0.9l-0.3-1.3C1060,377.6,1057.7,378.5,1055.1,378.5z M1056.7,374.5c1.7,0,3.4-0.5,5-1.6v-11.9
			c-1.5-1-3.1-1.6-4.9-1.6c-1.9,0-3.4,0.6-4.3,1.8c-0.9,1.2-1.4,3.1-1.4,5.7C1051.2,371.9,1053,374.5,1056.7,374.5z"/>
	</g>
	<g>
		<path d="M1034.8,415.6c-1.3,0-2.6-0.2-3.8-0.7c-1.2-0.5-2.2-1.2-3.1-2l-0.3,1.4c-0.1,0.6-0.5,0.9-1.1,0.9h-2.4c-0.6,0-1-0.3-1-1
			v-30.4c0-0.6,0.3-1,1-1h3.2c0.6,0,1,0.3,1,1v11.1c2.1-1.7,4.3-2.6,6.9-2.6c2.8,0,5,1,6.6,3.1c1.6,2.1,2.5,4.8,2.5,8.3
			c0,2.4-0.4,4.5-1.2,6.3c-0.8,1.8-1.9,3.2-3.3,4.1C1038.3,415.1,1036.7,415.6,1034.8,415.6z M1033.5,411.5c1.9,0,3.2-0.6,4.1-1.9
			c0.9-1.3,1.4-3.2,1.4-5.8c0-2.6-0.4-4.5-1.3-5.7c-0.9-1.2-2.3-1.9-4.1-1.9c-1.9,0-3.6,0.6-5.2,1.7v11.9
			C1029.9,411,1031.7,411.5,1033.5,411.5z"/>
		<path d="M1051.1,424.6c-1.1,0-2-0.1-2.7-0.3c-0.4-0.1-0.6-0.3-0.7-0.5c-0.1-0.2-0.2-0.5-0.2-0.9v-1.5c0-0.6,0.2-0.9,0.7-0.9
			c0.1,0,0.3,0,0.5,0c0.2,0,0.5,0,1,0c1.3,0,2.2-0.2,2.8-0.7c0.6-0.5,1.2-1.5,1.8-3l0.6-1.5l-8.2-21.1c-0.1-0.3-0.2-0.5-0.2-0.7
			c0-0.4,0.3-0.6,0.8-0.6h3.5c0.6,0,1,0.3,1.1,0.8l5.4,16.7l5.5-16.7c0.1-0.6,0.5-0.8,1.1-0.8h3.3c0.5,0,0.8,0.2,0.8,0.6
			c0,0.2-0.1,0.4-0.2,0.7l-9.5,24.4c-0.8,2.1-1.8,3.7-2.9,4.6C1054.3,424.2,1052.9,424.6,1051.1,424.6z"/>
	</g>
	<g>
		<path d="M95.4,412V303.8h42.3c16.7,0,29.6,4.7,38.7,14.1c9.2,9.4,13.7,22.7,13.7,40c0,11.3-2,21.1-6.1,29.3
			c-4.1,8.2-9.9,14.4-17.4,18.6c-7.5,4.2-16.6,6.3-27.1,6.3H95.4z M125.6,326.9v62h10.3c15.7,0,23.6-9.9,23.6-29.7v-2.8
			c0-19.7-7.8-29.5-23.3-29.5H125.6z"/>
		<path d="M256.9,414.7c-15,0-26.6-3.7-34.9-11c-8.3-7.3-12.4-17.8-12.4-31.3v-68.5h30.1v69.5c0,5.7,1.5,10.1,4.4,13
			c2.9,3,7.2,4.4,12.8,4.4c11.6,0,17.3-5.8,17.3-17.5v-69.5h30.1v68.7c0,13.4-4.2,23.8-12.5,31.1C283.5,411,271.9,414.7,256.9,414.7
			z"/>
		<path d="M349.8,368.3c-9.9-3.4-17-7.8-21.4-13c-4.4-5.2-6.6-12-6.6-20.5c0-6.9,1.9-12.9,5.6-18c3.7-5.1,8.9-9,15.4-11.7
			c6.5-2.7,14-4.1,22.4-4.1c10.9,0,21.3,1.9,31.1,5.6v21.9c-9.9-2.8-19.4-4.2-28.6-4.2c-10.7,0-16.1,2.8-16.1,8.4
			c0,2.1,0.9,3.9,2.8,5.3c1.9,1.5,5.3,3,10.3,4.7l9.4,3.1c10.7,3.5,18.3,7.8,22.9,12.7c4.5,4.9,6.8,11.5,6.8,19.7
			c0,11.5-4.1,20.4-12.3,26.7c-8.2,6.4-19.6,9.5-34.4,9.5c-6.4,0-12.5-0.5-18.4-1.6c-5.9-1.1-11-2.6-15.1-4.4v-22.2
			c5.1,1.4,10.7,2.5,16.9,3.4c6.2,0.9,11.8,1.3,16.9,1.3c5.4,0,9.4-0.7,12-2.1c2.6-1.4,3.9-3.6,3.9-6.6c0-1.7-0.3-3-1-4.1
			c-0.7-1-2-2.1-3.9-3c-1.9-1-5.1-2.3-9.6-3.8L349.8,368.3z"/>
		<path d="M440.6,412V303.8h32.6c15.7,0,27.6,4.6,35.8,13.8c8.1,9.2,12.2,22.7,12.2,40.4c0,17.6-4.2,31-12.6,40.2
			c-8.4,9.2-20.6,13.8-36.5,13.8H440.6z M449.8,311.5v92.9h21.1c13.4,0,23.6-3.7,30.4-11.2c6.8-7.4,10.2-18.6,10.2-33.3V356
			c0-29.7-13.5-44.5-40.4-44.5H449.8z"/>
		<path d="M545.5,412V303.8h63.9v8.3h-54.6v39.8h46.8v8.3h-46.8v43.6h54.6v8.3H545.5z"/>
		<path d="M722.7,412v-94.3l-37.2,65.4h-8.7l-37.2-64.9V412h-8.7V303.8h10.9l39.7,69.6l39.3-69.6h10.6V412H722.7z"/>
		<path d="M755.8,358.2c0-17.8,4.4-31.7,13.1-41.6c8.7-9.9,20.9-14.9,36.5-14.9s27.8,5,36.5,14.9c8.7,9.9,13.1,23.8,13.1,41.6
			c0,17.8-4.4,31.7-13.1,41.6c-8.7,9.9-20.9,14.9-36.5,14.9s-27.8-5-36.5-14.9C760.2,389.8,755.8,376,755.8,358.2z M765.5,358.2
			c0,15.7,3.4,27.6,10.1,35.8c6.8,8.1,16.7,12.2,29.8,12.2s23.1-4.1,29.8-12.2c6.8-8.1,10.1-20,10.1-35.8c0-15.7-3.4-27.6-10.1-35.8
			c-6.8-8.1-16.7-12.2-29.8-12.2s-23.1,4.1-29.8,12.2C768.9,330.5,765.5,342.5,765.5,358.2z"/>
	</g>
	<g>
		<path d="M93,468v-28.6h9.2c4.1,0,7.3,1.2,9.4,3.6c2.2,2.4,3.3,6,3.3,10.6c0,4.6-1.1,8.1-3.3,10.6c-2.2,2.4-5.4,3.7-9.5,3.7H93z
			 M101.6,464.7c6,0,9-3.5,9-10.5v-0.9c0-3.5-0.8-6.1-2.3-7.9c-1.5-1.8-3.8-2.6-6.7-2.6h-4.5v22H101.6z"/>
		<path d="M144.7,461.7c-1,2.2-2.5,3.9-4.5,5.2c-2,1.2-4.3,1.8-7.1,1.8c-2.7,0-5-0.6-6.9-1.8c-2-1.2-3.5-2.9-4.6-5.1
			c-1.1-2.3-1.6-4.9-1.6-8.1c0-3,0.5-5.7,1.5-7.9c1-2.2,2.5-4,4.5-5.2c2-1.2,4.3-1.8,7.1-1.8c4.1,0,7.3,1.3,9.6,4
			c2.3,2.7,3.5,6.3,3.5,10.9C146.3,456.8,145.7,459.5,144.7,461.7z M133.2,465.2c2.9,0,5.1-1,6.6-2.9c1.5-2,2.3-4.8,2.3-8.5
			s-0.8-6.5-2.3-8.5c-1.5-1.9-3.7-2.9-6.6-2.9c-2.9,0-5.1,1-6.6,2.9c-1.5,1.9-2.3,4.8-2.3,8.5c0,3.7,0.8,6.6,2.3,8.5
			C128.1,464.2,130.3,465.2,133.2,465.2z"/>
		<path d="M171.9,467.2c-2.2,0.9-4.5,1.3-7.1,1.3c-4.4,0-7.8-1.2-10-3.7c-2.3-2.5-3.4-6.1-3.4-10.9c0-4.8,1.2-8.4,3.5-11
			c2.4-2.6,5.7-3.8,10.1-3.8c2.3,0,4.4,0.4,6.5,1.1v3.4c-2.5-0.6-4.4-0.9-6-0.9c-3.4,0-5.9,0.8-7.4,2.5c-1.6,1.7-2.3,4.4-2.3,8.1v1
			c0,3.6,0.8,6.3,2.3,8c1.5,1.7,3.9,2.6,7.2,2.6c1.7,0,3.9-0.3,6.6-1V467.2z"/>
		<path d="M198.6,457.6c0,3.6-0.9,6.3-2.8,8.2c-1.9,1.9-4.6,2.9-8.2,2.9c-3.6,0-6.3-1-8.2-2.9c-1.9-1.9-2.8-4.7-2.8-8.3v-18.1h4.1
			V458c0,2.3,0.6,4.1,1.8,5.3c1.2,1.3,2.9,1.9,5.1,1.9c2.2,0,3.9-0.6,5.1-1.9c1.2-1.2,1.8-3,1.8-5.3v-18.5h4.1V457.6z"/>
		<path d="M232.4,468h-3.8v-22.5l-7.9,15.2H217l-7.9-15.2V468h-3.8v-28.6h4.6l9,17.5l9-17.5h4.5V468z"/>
		<path d="M256.6,468h-17.4v-28.6h17.4v3.4h-13.3v8.8h11.1v3.4h-11.1v9.6h13.3V468z"/>
		<path d="M283.9,468h-4.5l-13.7-22.7V468h-3.8v-28.6h4.5l13.8,22.8v-22.8h3.8V468z"/>
		<path d="M300.9,468h-4.1v-25.1h-8.9v-3.5h22v3.5h-8.9V468z"/>
		<path d="M346.3,457.6c0,3.6-0.9,6.3-2.8,8.2c-1.9,1.9-4.6,2.9-8.2,2.9c-3.6,0-6.3-1-8.2-2.9c-1.9-1.9-2.8-4.7-2.8-8.3v-18.1h4.1
			V458c0,2.3,0.6,4.1,1.8,5.3c1.2,1.3,2.9,1.9,5.1,1.9c2.2,0,3.9-0.6,5.1-1.9c1.2-1.2,1.8-3,1.8-5.3v-18.5h4.1V457.6z"/>
		<path d="M374.9,468h-4.5l-13.7-22.7V468h-3.8v-28.6h4.5l13.8,22.8v-22.8h3.8V468z"/>
		<path d="M381.7,468v-28.6h9.2c4.1,0,7.3,1.2,9.4,3.6c2.2,2.4,3.3,6,3.3,10.6c0,4.6-1.1,8.1-3.3,10.6c-2.2,2.4-5.4,3.7-9.5,3.7
			H381.7z M390.4,464.7c6,0,9-3.5,9-10.5v-0.9c0-3.5-0.8-6.1-2.3-7.9s-3.8-2.6-6.7-2.6h-4.5v22H390.4z"/>
		<path d="M427,468h-17.4v-28.6H427v3.4h-13.3v8.8h11.1v3.4h-11.1v9.6H427V468z"/>
		<path d="M453,468h-4.5l-6.9-11.5h-5.5V468h-4v-28.6h10.2c2.7,0,4.9,0.8,6.5,2.3c1.6,1.5,2.4,3.6,2.4,6.2c0,1.9-0.5,3.5-1.5,4.9
			c-1,1.4-2.4,2.4-4.3,3L453,468z M441.9,453.2c1.7,0,3-0.4,3.9-1.3c0.9-0.9,1.4-2.2,1.4-3.9c0-1.7-0.4-3-1.3-3.9
			c-0.9-0.9-2.1-1.3-3.8-1.3h-5.9v10.4H441.9z"/>
		<path d="M468.3,452.6c2.2,0.8,3.7,1.8,4.7,3c1,1.2,1.4,2.7,1.4,4.5c0,2.6-0.9,4.7-2.8,6.3c-1.8,1.6-4.3,2.3-7.4,2.3
			c-3.1,0-5.8-0.6-8.1-1.7v-3.3c2.8,1,5.5,1.4,8,1.4c1.9,0,3.4-0.4,4.5-1.3c1.1-0.8,1.6-2,1.6-3.5c0-1-0.3-1.9-0.9-2.5
			c-0.6-0.7-1.7-1.3-3.2-1.9l-3.9-1.5c-2.2-0.9-3.8-1.9-4.8-3.1c-1-1.2-1.5-2.7-1.5-4.6c0-1.5,0.4-2.9,1.1-4.1
			c0.8-1.2,1.8-2.1,3.3-2.8c1.4-0.7,3.1-1,5-1c2.4,0,4.9,0.5,7.5,1.5v3.3c-2.7-0.9-5.1-1.3-7.2-1.3c-1.8,0-3.1,0.4-4.1,1.1
			c-1,0.7-1.4,1.8-1.4,3.1c0,1.1,0.3,2,1,2.6c0.6,0.6,1.8,1.3,3.6,2L468.3,452.6z"/>
		<path d="M490.3,468h-4.1v-25.1h-8.9v-3.5h22v3.5h-8.9V468z"/>
		<path d="M523.9,468h-4.3l-2.6-7.6h-11.5L503,468h-4.2l10.3-28.6h4.4L523.9,468z M516,457.3l-4.7-14l-4.7,14H516z"/>
		<path d="M549.7,468h-4.5l-13.7-22.7V468h-3.8v-28.6h4.5l13.8,22.8v-22.8h3.8V468z"/>
		<path d="M556.5,468v-28.6h9.2c4.1,0,7.3,1.2,9.4,3.6c2.2,2.4,3.3,6,3.3,10.6c0,4.6-1.1,8.1-3.3,10.6c-2.2,2.4-5.4,3.7-9.5,3.7
			H556.5z M565.2,464.7c6,0,9-3.5,9-10.5v-0.9c0-3.5-0.8-6.1-2.3-7.9c-1.5-1.8-3.8-2.6-6.7-2.6h-4.5v22H565.2z"/>
		<path d="M588.7,468h-4.1v-28.6h4.1V468z"/>
		<path d="M617.7,468h-4.5l-13.7-22.7V468h-3.8v-28.6h4.5l13.8,22.8v-22.8h3.8V468z"/>
		<path d="M646.1,466.5c-1.2,0.7-2.5,1.2-4.1,1.5c-1.6,0.3-3.2,0.5-4.9,0.5c-4.4,0-7.8-1.2-10.1-3.7c-2.3-2.5-3.4-6.1-3.4-10.9
			c0-4.8,1.2-8.5,3.5-11.1c2.3-2.5,5.7-3.8,10.2-3.8c2.8,0,5.4,0.6,7.8,1.7v3.3c-2.7-1-5.2-1.4-7.3-1.4c-3.4,0-5.9,0.9-7.5,2.6
			c-1.6,1.7-2.4,4.5-2.4,8.2v0.9c0,3.7,0.8,6.3,2.4,8.1c1.6,1.7,4.2,2.6,7.6,2.6c1.6,0,3-0.2,4.3-0.5v-8.4h-6.3v-3.3h10.1V466.5z"/>
		<path d="M674.3,452.6c2.2,0.8,3.7,1.8,4.7,3c1,1.2,1.4,2.7,1.4,4.5c0,2.6-0.9,4.7-2.8,6.3c-1.8,1.6-4.3,2.3-7.4,2.3
			c-3.1,0-5.8-0.6-8.1-1.7v-3.3c2.8,1,5.5,1.4,8,1.4c1.9,0,3.4-0.4,4.5-1.3c1.1-0.8,1.6-2,1.6-3.5c0-1-0.3-1.9-0.9-2.5
			c-0.6-0.7-1.7-1.3-3.2-1.9l-3.9-1.5c-2.2-0.9-3.8-1.9-4.8-3.1c-1-1.2-1.5-2.7-1.5-4.6c0-1.5,0.4-2.9,1.1-4.1
			c0.8-1.2,1.8-2.1,3.3-2.8c1.4-0.7,3.1-1,5-1c2.4,0,4.9,0.5,7.5,1.5v3.3c-2.7-0.9-5.1-1.3-7.2-1.3c-1.8,0-3.1,0.4-4.1,1.1
			c-1,0.7-1.4,1.8-1.4,3.1c0,1.1,0.3,2,1,2.6c0.6,0.6,1.8,1.3,3.6,2L674.3,452.6z"/>
		<path d="M709.8,461.7c-1,2.2-2.5,3.9-4.5,5.2c-2,1.2-4.3,1.8-7.1,1.8c-2.7,0-5-0.6-6.9-1.8c-2-1.2-3.5-2.9-4.6-5.1
			c-1.1-2.3-1.6-4.9-1.6-8.1c0-3,0.5-5.7,1.5-7.9s2.5-4,4.5-5.2c2-1.2,4.3-1.8,7.1-1.8c4.1,0,7.3,1.3,9.6,4
			c2.3,2.7,3.5,6.3,3.5,10.9C711.4,456.8,710.9,459.5,709.8,461.7z M698.3,465.2c2.9,0,5.1-1,6.6-2.9c1.5-2,2.3-4.8,2.3-8.5
			s-0.8-6.5-2.3-8.5c-1.5-1.9-3.7-2.9-6.6-2.9c-2.9,0-5.1,1-6.6,2.9c-1.5,1.9-2.3,4.8-2.3,8.5c0,3.7,0.8,6.6,2.3,8.5
			C693.2,464.2,695.4,465.2,698.3,465.2z"/>
		<path d="M734.7,468h-17.3v-28.6h4.1v25.1h13.2V468z"/>
		<path d="M760.2,457.6c0,3.6-0.9,6.3-2.8,8.2c-1.9,1.9-4.6,2.9-8.2,2.9c-3.6,0-6.3-1-8.2-2.9c-1.9-1.9-2.8-4.7-2.8-8.3v-18.1h4.1
			V458c0,2.3,0.6,4.1,1.8,5.3c1.2,1.3,2.9,1.9,5.1,1.9c2.2,0,3.9-0.6,5.1-1.9c1.2-1.2,1.8-3,1.8-5.3v-18.5h4.1V457.6z"/>
		<path d="M777.1,468h-4.1v-25.1H764v-3.5h22v3.5h-8.9V468z"/>
		<path d="M794.3,468h-4.1v-28.6h4.1V468z"/>
		<path d="M825.1,461.7c-1,2.2-2.5,3.9-4.5,5.2c-2,1.2-4.3,1.8-7.1,1.8c-2.7,0-5-0.6-6.9-1.8c-2-1.2-3.5-2.9-4.6-5.1
			c-1.1-2.3-1.6-4.9-1.6-8.1c0-3,0.5-5.7,1.5-7.9s2.5-4,4.5-5.2c2-1.2,4.3-1.8,7.1-1.8c4.1,0,7.3,1.3,9.6,4
			c2.3,2.7,3.5,6.3,3.5,10.9C826.6,456.8,826.1,459.5,825.1,461.7z M813.5,465.2c2.9,0,5.1-1,6.6-2.9c1.5-2,2.3-4.8,2.3-8.5
			s-0.8-6.5-2.3-8.5c-1.5-1.9-3.7-2.9-6.6-2.9c-2.9,0-5.1,1-6.6,2.9c-1.5,1.9-2.3,4.8-2.3,8.5c0,3.7,0.8,6.6,2.3,8.5
			C808.4,464.2,810.6,465.2,813.5,465.2z"/>
		<path d="M854.6,468h-4.5l-13.7-22.7V468h-3.8v-28.6h4.5l13.8,22.8v-22.8h3.8V468z"/>
	</g>
</g>
</svg>
