<?xml version="1.0" encoding="UTF-8" standalone="no"?>
<!-- Generator: Adobe Illustrator 24.1.2, SVG Export Plug-In . SVG Version: 6.00 Build 0)  -->

<svg
   xmlns:dc="http://purl.org/dc/elements/1.1/"
   xmlns:cc="http://creativecommons.org/ns#"
   xmlns:rdf="http://www.w3.org/1999/02/22-rdf-syntax-ns#"
   xmlns:svg="http://www.w3.org/2000/svg"
   xmlns="http://www.w3.org/2000/svg"
   xmlns:sodipodi="http://sodipodi.sourceforge.net/DTD/sodipodi-0.dtd"
   xmlns:inkscape="http://www.inkscape.org/namespaces/inkscape"
   version="1.1"
   id="Layer_1"
   x="0px"
   y="0px"
   viewBox="0 0 1182.7969 168"
   xml:space="preserve"
   sodipodi:docname="DUS_DEMO_logo_WhiteBG.svg"
   width="1182.7969"
   height="168"
   inkscape:version="0.92.3 (2405546, 2018-03-11)"><metadata
   id="metadata117"><rdf:RDF><cc:Work
       rdf:about=""><dc:format>image/svg+xml</dc:format><dc:type
         rdf:resource="http://purl.org/dc/dcmitype/StillImage" /><dc:title></dc:title></cc:Work></rdf:RDF></metadata><defs
   id="defs115" /><sodipodi:namedview
   pagecolor="#ffffff"
   bordercolor="#666666"
   borderopacity="1"
   objecttolerance="10"
   gridtolerance="10"
   guidetolerance="10"
   inkscape:pageopacity="0"
   inkscape:pageshadow="2"
   inkscape:window-width="1920"
   inkscape:window-height="1025"
   id="namedview113"
   showgrid="false"
   fit-margin-top="0"
   fit-margin-left="0"
   fit-margin-right="0"
   fit-margin-bottom="0"
   inkscape:zoom="0.19692533"
   inkscape:cx="606.9342"
   inkscape:cy="73.843866"
   inkscape:window-x="0"
   inkscape:window-y="27"
   inkscape:window-maximized="1"
   inkscape:current-layer="Layer_1" />
<style
   type="text/css"
   id="style2">
	.st0{fill:#FFFFFF;}
	.st1{fill-rule:evenodd;clip-rule:evenodd;fill:#F89628;}
</style>
<g
   id="g110"
   transform="translate(-91.3,-300)">
	<g
   id="g10">
		<path
   class="st0"
   d="m 1141.2,389.1 c 0,2.3 0.2,4.1 0.7,5.5 0.5,1.4 1.1,2.8 2,4.4 0.3,0.5 0.4,1 0.4,1.4 0,0.6 -0.4,1.3 -1.2,1.8 l -3.9,2.6 c -0.6,0.4 -1.1,0.5 -1.6,0.5 -0.6,0 -1.3,-0.3 -1.8,-0.9 -0.9,-0.9 -1.6,-1.8 -2.2,-2.9 -0.6,-1 -1.2,-2.2 -1.9,-3.6 -4.8,5.7 -10.8,8.5 -18.1,8.5 -5.2,0 -9.3,-1.5 -12.3,-4.4 -3,-2.9 -4.5,-6.9 -4.5,-11.8 0,-5.2 1.9,-9.4 5.6,-12.6 3.7,-3.2 8.7,-4.8 15.1,-4.8 2.1,0 4.2,0.2 6.5,0.5 2.3,0.3 4.6,0.8 7,1.3 v -4.5 c 0,-4.7 -1,-7.9 -2.9,-9.8 -1.9,-1.9 -5.3,-2.9 -10,-2.9 -2.2,0 -4.4,0.3 -6.6,0.8 -2.3,0.5 -4.5,1.2 -6.6,2.1 -1,0.4 -1.7,0.7 -2.1,0.8 -0.4,0.1 -0.8,0.2 -1,0.2 -0.9,0 -1.3,-0.6 -1.3,-1.9 v -3 c 0,-1 0.1,-1.7 0.4,-2.1 0.3,-0.4 0.9,-0.9 1.7,-1.3 2.2,-1.1 4.7,-2 7.7,-2.8 3,-0.8 6.2,-1.2 9.6,-1.2 7.3,0 12.7,1.7 16.1,5 3.4,3.3 5.1,8.4 5.1,15.1 v 20 m -24.8,9.4 c 2,0 4.1,-0.4 6.3,-1.1 2.2,-0.8 4.2,-2.1 5.8,-3.9 1,-1.1 1.7,-2.5 2.1,-3.9 0.4,-1.5 0.6,-3.2 0.6,-5.3 v -2.6 c -1.8,-0.4 -3.7,-0.8 -5.6,-1 -2,-0.3 -3.9,-0.4 -5.8,-0.4 -4.1,0 -7.1,0.8 -9.1,2.5 -2,1.6 -3,4 -3,7.1 0,2.9 0.8,5 2.3,6.5 1.4,1.4 3.6,2.1 6.4,2.1 m 49.4,6.7 c -1.1,0 -1.9,-0.2 -2.4,-0.6 -0.5,-0.4 -0.9,-1.2 -1.3,-2.4 l -14.4,-47.5 c -0.4,-1.2 -0.5,-2 -0.5,-2.5 0,-1 0.5,-1.5 1.5,-1.5 h 6 c 1.1,0 1.9,0.2 2.4,0.6 0.5,0.4 0.9,1.2 1.2,2.4 l 10.3,40.7 9.6,-40.7 c 0.3,-1.2 0.7,-2 1.2,-2.4 0.5,-0.4 1.3,-0.6 2.5,-0.6 h 4.9 c 1.1,0 2,0.2 2.5,0.6 0.5,0.4 0.9,1.2 1.2,2.4 l 9.7,41.2 10.7,-41.2 c 0.4,-1.2 0.8,-2 1.2,-2.4 0.5,-0.4 1.3,-0.6 2.4,-0.6 h 5.7 c 1,0 1.5,0.5 1.5,1.5 0,0.3 0,0.6 -0.1,1 -0.1,0.4 -0.2,0.9 -0.4,1.5 l -14.8,47.5 c -0.4,1.2 -0.8,2 -1.3,2.4 -0.5,0.4 -1.3,0.6 -2.4,0.6 h -5.3 c -1.1,0 -2,-0.2 -2.5,-0.6 -0.5,-0.4 -0.9,-1.3 -1.2,-2.5 l -9.6,-39.6 -9.5,39.6 c -0.3,1.2 -0.7,2 -1.2,2.5 -0.5,0.4 -1.3,0.6 -2.5,0.6 z m 78.9,1.6 c -3.2,0 -6.4,-0.4 -9.5,-1.1 -3.1,-0.7 -5.4,-1.5 -7.1,-2.5 -1,-0.6 -1.6,-1.1 -1.9,-1.7 -0.3,-0.6 -0.4,-1.1 -0.4,-1.7 v -3.1 c 0,-1.3 0.5,-1.9 1.4,-1.9 0.4,0 0.7,0.1 1.1,0.2 0.4,0.1 0.9,0.4 1.6,0.6 2.1,0.9 4.3,1.6 6.8,2.1 2.4,0.5 4.9,0.8 7.3,0.8 3.9,0 6.9,-0.7 9,-2 2.1,-1.4 3.2,-3.3 3.2,-5.8 0,-1.7 -0.6,-3.2 -1.7,-4.3 -1.1,-1.1 -3.2,-2.2 -6.2,-3.2 l -8.9,-2.8 c -4.5,-1.4 -7.8,-3.5 -9.8,-6.2 -2,-2.7 -3.1,-5.7 -3.1,-8.9 0,-2.6 0.6,-4.9 1.7,-6.8 1.1,-2 2.6,-3.7 4.4,-5.1 1.8,-1.4 4,-2.5 6.4,-3.2 2.4,-0.7 5,-1.1 7.7,-1.1 1.4,0 2.7,0.1 4.1,0.3 1.4,0.2 2.7,0.4 4,0.7 1.3,0.3 2.4,0.6 3.5,1 1.1,0.4 1.9,0.7 2.6,1.1 0.9,0.5 1.5,1 1.8,1.5 0.4,0.5 0.5,1.2 0.5,2 v 2.9 c 0,1.3 -0.5,1.9 -1.4,1.9 -0.5,0 -1.3,-0.3 -2.4,-0.7 -3.5,-1.6 -7.5,-2.4 -11.8,-2.4 -3.5,0 -6.2,0.6 -8.2,1.7 -1.9,1.1 -2.9,3 -2.9,5.5 0,1.7 0.6,3.2 1.8,4.4 1.2,1.2 3.5,2.3 6.8,3.4 l 8.7,2.8 c 4.4,1.4 7.6,3.4 9.5,5.9 1.9,2.5 2.9,5.4 2.9,8.6 0,2.7 -0.5,5 -1.6,7.2 -1.1,2.1 -2.6,3.9 -4.5,5.4 -1.9,1.5 -4.2,2.7 -6.8,3.4 -2.5,0.7 -5.4,1.1 -8.6,1.1"
   id="path4"
   inkscape:connector-curvature="0"
   style="fill:#ffffff" />
		<path
   class="st1"
   d="m 1256.2,437 c -20.2,14.9 -49.6,22.9 -74.8,22.9 -35.4,0 -67.3,-13.1 -91.4,-34.9 -1.9,-1.7 -0.2,-4 2.1,-2.7 26,15.2 58.2,24.3 91.5,24.3 22.4,0 47.1,-4.7 69.8,-14.3 3.3,-1.4 6.2,2.3 2.8,4.7"
   id="path6"
   inkscape:connector-curvature="0"
   style="clip-rule:evenodd;fill:#f89628;fill-rule:evenodd" />
		<path
   class="st1"
   d="m 1264.7,427.4 c -2.6,-3.3 -17.1,-1.6 -23.6,-0.8 -2,0.2 -2.3,-1.5 -0.5,-2.7 11.6,-8.1 30.6,-5.8 32.8,-3.1 2.2,2.7 -0.6,21.8 -11.4,30.9 -1.7,1.4 -3.3,0.7 -2.5,-1.2 2.3,-6.1 7.7,-19.8 5.2,-23.1"
   id="path8"
   inkscape:connector-curvature="0"
   style="clip-rule:evenodd;fill:#f89628;fill-rule:evenodd" />
	</g>
	<g
   id="g26">
		<path
   class="st0"
   d="m 900.4,386 c -0.6,0 -1,-0.3 -1,-1 v -29.1 c 0,-0.6 0.3,-1 1,-1 h 2.4 c 0.6,0 1,0.3 1.1,0.9 l 0.3,1.3 c 1,-0.9 2.1,-1.6 3.4,-2.1 1.2,-0.5 2.5,-0.7 3.8,-0.7 2.7,0 4.9,1 6.6,3.1 1.6,2.1 2.4,4.8 2.4,8.3 0,2.4 -0.4,4.5 -1.2,6.3 -0.8,1.8 -1.9,3.2 -3.3,4.1 -1.4,1 -3,1.4 -4.9,1.4 -1.2,0 -2.4,-0.2 -3.5,-0.6 -1.1,-0.4 -2.1,-1 -2.9,-1.8 v 9.9 c 0,0.6 -0.3,1 -1,1 z m 9.3,-12.5 c 1.8,0 3.2,-0.6 4.1,-1.9 0.9,-1.3 1.3,-3.2 1.3,-5.7 0,-2.5 -0.4,-4.4 -1.3,-5.7 -0.9,-1.2 -2.2,-1.8 -4.1,-1.8 -1.9,0 -3.6,0.5 -5.2,1.6 v 11.8 c 1.7,1.1 3.4,1.7 5.2,1.7 z"
   id="path12"
   inkscape:connector-curvature="0"
   style="fill:#ffffff" />
		<path
   class="st0"
   d="m 935,377.7 c -3.4,0 -6,-1 -7.8,-3.1 -1.9,-2.1 -2.8,-4.9 -2.8,-8.6 0,-3.7 0.9,-6.5 2.8,-8.6 1.9,-2.1 4.5,-3.1 7.8,-3.1 3.4,0 6,1 7.8,3.1 1.9,2.1 2.8,4.9 2.8,8.6 0,3.7 -0.9,6.5 -2.8,8.6 -1.8,2.1 -4.4,3.1 -7.8,3.1 z m 0,-4 c 3.6,0 5.5,-2.6 5.5,-7.7 0,-5.1 -1.8,-7.6 -5.5,-7.6 -3.6,0 -5.5,2.5 -5.5,7.6 0.1,5.1 1.9,7.7 5.5,7.7 z"
   id="path14"
   inkscape:connector-curvature="0"
   style="fill:#ffffff" />
		<path
   class="st0"
   d="m 955.7,377 c -0.7,0 -1.1,-0.3 -1.3,-0.9 L 948,356.4 c -0.1,-0.4 -0.2,-0.7 -0.2,-0.9 0,-0.4 0.3,-0.6 0.8,-0.6 h 3.5 c 0.6,0 1,0.3 1.1,0.8 l 4.1,16 4.2,-16 c 0.1,-0.3 0.2,-0.6 0.4,-0.7 0.2,-0.1 0.5,-0.2 0.8,-0.2 h 2.9 c 0.4,0 0.7,0.1 0.8,0.2 0.2,0.1 0.3,0.4 0.4,0.7 l 4.2,16.3 4.3,-16.3 c 0.1,-0.5 0.5,-0.8 1.1,-0.8 h 3.2 c 0.5,0 0.8,0.2 0.8,0.6 0,0.1 -0.1,0.4 -0.2,0.9 l -6.5,19.7 c -0.2,0.6 -0.6,0.9 -1.3,0.9 h -3 c -0.3,0 -0.6,-0.1 -0.8,-0.2 -0.2,-0.1 -0.3,-0.4 -0.4,-0.7 l -4.1,-15.7 -4.1,15.7 c -0.1,0.3 -0.2,0.6 -0.4,0.7 -0.2,0.1 -0.5,0.2 -0.8,0.2 z"
   id="path16"
   inkscape:connector-curvature="0"
   style="fill:#ffffff" />
		<path
   class="st0"
   d="m 993.8,377.7 c -3.6,0 -6.4,-1 -8.3,-2.9 -1.9,-2 -2.8,-4.8 -2.8,-8.6 0,-3.7 0.9,-6.6 2.8,-8.7 1.8,-2.1 4.4,-3.1 7.7,-3.1 2.8,0 5,0.8 6.5,2.3 1.5,1.5 2.3,3.7 2.3,6.6 0,1 -0.1,2 -0.2,3.1 -0.1,0.4 -0.2,0.6 -0.3,0.8 -0.2,0.1 -0.4,0.2 -0.6,0.2 h -13.4 c 0.1,2.2 0.7,3.8 1.8,4.8 1.1,1 2.9,1.5 5.3,1.5 1.7,0 3.6,-0.3 5.5,-0.8 0.2,-0.1 0.4,-0.1 0.5,-0.1 0.1,0 0.2,0 0.3,0 0.4,0 0.7,0.3 0.7,0.9 v 1.6 c 0,0.4 -0.1,0.7 -0.2,0.9 -0.1,0.2 -0.4,0.4 -0.9,0.5 -2.1,0.6 -4.2,1 -6.7,1 z m 3.6,-13.9 v -0.3 c 0,-1.8 -0.4,-3.1 -1.1,-4 -0.8,-0.9 -1.9,-1.4 -3.4,-1.4 -1.6,0 -2.8,0.5 -3.8,1.6 -1,1 -1.5,2.4 -1.7,4.2 h 10 z"
   id="path18"
   inkscape:connector-curvature="0"
   style="fill:#ffffff" />
		<path
   class="st0"
   d="m 1007.9,377 c -0.6,0 -1,-0.3 -1,-1 v -20.2 c 0,-0.6 0.3,-1 1,-1 h 2.3 c 0.4,0 0.7,0.1 0.8,0.2 0.2,0.1 0.3,0.3 0.3,0.7 l 0.5,2.5 c 1.2,-1.3 2.2,-2.2 3.3,-2.7 1,-0.5 2.1,-0.8 3.3,-0.8 h 0.2 c 0.4,0 0.7,0 0.9,0.1 0.2,0.1 0.4,0.2 0.5,0.4 0.1,0.2 0.2,0.5 0.2,1 v 2.3 c 0,0.6 -0.3,0.9 -0.8,0.9 -0.2,0 -0.4,0 -0.7,0 -0.3,0 -0.6,0 -1,0 -2.1,0 -4,0.5 -5.7,1.6 v 15 c 0,0.6 -0.3,1 -1,1 z"
   id="path20"
   inkscape:connector-curvature="0"
   style="fill:#ffffff" />
		<path
   class="st0"
   d="m 1033.6,377.7 c -3.6,0 -6.4,-1 -8.3,-2.9 -1.9,-2 -2.8,-4.8 -2.8,-8.6 0,-3.7 0.9,-6.6 2.8,-8.7 1.8,-2.1 4.4,-3.1 7.7,-3.1 2.8,0 5,0.8 6.5,2.3 1.5,1.5 2.3,3.7 2.3,6.6 0,1 -0.1,2 -0.2,3.1 -0.1,0.4 -0.2,0.6 -0.3,0.8 -0.2,0.1 -0.4,0.2 -0.6,0.2 h -13.4 c 0.1,2.2 0.7,3.8 1.8,4.8 1.1,1 2.9,1.5 5.3,1.5 1.7,0 3.6,-0.3 5.5,-0.8 0.2,-0.1 0.4,-0.1 0.5,-0.1 0.1,0 0.2,0 0.3,0 0.4,0 0.7,0.3 0.7,0.9 v 1.6 c 0,0.4 -0.1,0.7 -0.2,0.9 -0.1,0.2 -0.4,0.4 -0.9,0.5 -2,0.6 -4.2,1 -6.7,1 z m 3.7,-13.9 v -0.3 c 0,-1.8 -0.4,-3.1 -1.1,-4 -0.8,-0.9 -1.9,-1.4 -3.4,-1.4 -1.6,0 -2.8,0.5 -3.8,1.6 -1,1 -1.5,2.4 -1.7,4.2 h 10 z"
   id="path22"
   inkscape:connector-curvature="0"
   style="fill:#ffffff" />
		<path
   class="st0"
   d="m 1054.8,377.5 c -2.8,0 -5,-1 -6.7,-3.1 -1.7,-2.1 -2.5,-4.8 -2.5,-8.3 0,-2.4 0.4,-4.5 1.2,-6.3 0.8,-1.8 1.9,-3.1 3.3,-4.1 1.4,-0.9 3,-1.4 4.9,-1.4 2.3,0 4.4,0.8 6.3,2.3 v -10.7 c 0,-0.6 0.3,-1 1,-1 h 3.2 c 0.6,0 1,0.3 1,1 v 30.2 c 0,0.6 -0.3,1 -1,1 h -2.5 c -0.6,0 -1,-0.3 -1.1,-0.9 l -0.3,-1.3 c -2,1.7 -4.2,2.6 -6.8,2.6 z m 1.6,-4 c 1.7,0 3.4,-0.5 5,-1.6 V 360 c -1.5,-1 -3.1,-1.6 -4.9,-1.6 -1.9,0 -3.4,0.6 -4.3,1.8 -0.9,1.2 -1.4,3.1 -1.4,5.7 0.1,5 1.9,7.6 5.6,7.6 z"
   id="path24"
   inkscape:connector-curvature="0"
   style="fill:#ffffff" />
	</g>
	<g
   id="g32">
		<path
   class="st0"
   d="m 1034.5,414.7 c -1.3,0 -2.6,-0.2 -3.8,-0.7 -1.2,-0.5 -2.2,-1.2 -3.1,-2 l -0.3,1.4 c -0.1,0.6 -0.5,0.9 -1.1,0.9 h -2.4 c -0.6,0 -1,-0.3 -1,-1 v -30.4 c 0,-0.6 0.3,-1 1,-1 h 3.2 c 0.6,0 1,0.3 1,1 V 394 c 2.1,-1.7 4.4,-2.6 6.9,-2.6 2.8,0 5,1 6.6,3.1 1.6,2.1 2.5,4.9 2.5,8.3 0,2.4 -0.4,4.5 -1.2,6.3 -0.8,1.8 -1.9,3.2 -3.3,4.2 -1.5,0.9 -3.2,1.4 -5,1.4 z m -1.3,-4.1 c 1.9,0 3.2,-0.6 4.2,-1.9 0.9,-1.3 1.4,-3.2 1.4,-5.8 0,-2.6 -0.4,-4.5 -1.3,-5.7 -0.9,-1.2 -2.3,-1.9 -4.1,-1.9 -1.9,0 -3.6,0.6 -5.2,1.7 v 11.9 c 1.4,1.2 3.1,1.7 5,1.7 z"
   id="path28"
   inkscape:connector-curvature="0"
   style="fill:#ffffff" />
		<path
   class="st0"
   d="m 1050.8,423.7 c -1.1,0 -2,-0.1 -2.8,-0.3 -0.4,-0.1 -0.6,-0.3 -0.7,-0.5 -0.1,-0.2 -0.2,-0.5 -0.2,-0.9 v -1.5 c 0,-0.6 0.2,-0.9 0.7,-0.9 0.1,0 0.3,0 0.5,0 0.2,0 0.5,0 1,0 1.3,0 2.2,-0.2 2.8,-0.7 0.6,-0.5 1.2,-1.5 1.8,-3.1 l 0.6,-1.5 -8.3,-21.2 c -0.1,-0.3 -0.2,-0.5 -0.2,-0.7 0,-0.4 0.3,-0.6 0.8,-0.6 h 3.5 c 0.6,0 1,0.3 1.1,0.8 l 5.4,16.8 5.5,-16.8 c 0.1,-0.6 0.5,-0.8 1.1,-0.8 h 3.3 c 0.5,0 0.8,0.2 0.8,0.6 0,0.2 -0.1,0.4 -0.2,0.7 l -9.5,24.5 c -0.8,2.1 -1.8,3.7 -2.9,4.6 -0.9,1.1 -2.3,1.5 -4.1,1.5 z"
   id="path30"
   inkscape:connector-curvature="0"
   style="fill:#ffffff" />
	</g>
	<g
   id="g48">
		<path
   class="st0"
   d="M 93.8,411.1 V 302.8 h 42.4 c 16.7,0 29.6,4.7 38.8,14.1 9.2,9.4 13.8,22.7 13.8,40 0,11.4 -2,21.1 -6.1,29.3 -4.1,8.2 -9.9,14.4 -17.4,18.6 -7.6,4.2 -16.6,6.3 -27.1,6.3 H 93.8 Z m 30.1,-85.2 V 388 h 10.3 c 15.7,0 23.6,-9.9 23.6,-29.7 v -2.8 c 0,-19.7 -7.8,-29.6 -23.3,-29.6 z"
   id="path34"
   inkscape:connector-curvature="0"
   style="fill:#ffffff" />
		<path
   class="st0"
   d="m 255.4,413.8 c -15,0 -26.7,-3.7 -34.9,-11 -8.3,-7.4 -12.4,-17.8 -12.4,-31.4 v -68.6 h 30.2 v 69.6 c 0,5.7 1.5,10.1 4.4,13.1 2.9,3 7.2,4.5 12.8,4.5 11.6,0 17.4,-5.8 17.4,-17.5 V 302.9 H 303 v 68.8 c 0,13.4 -4.2,23.8 -12.5,31.2 -8.4,7.2 -20.1,10.9 -35.1,10.9 z"
   id="path36"
   inkscape:connector-curvature="0"
   style="fill:#ffffff" />
		<path
   class="st0"
   d="m 348.5,367.3 c -9.9,-3.4 -17,-7.8 -21.4,-13 -4.4,-5.2 -6.6,-12 -6.6,-20.5 0,-6.9 1.9,-12.9 5.6,-18 3.8,-5.1 8.9,-9 15.4,-11.7 6.5,-2.7 14,-4.1 22.4,-4.1 10.9,0 21.3,1.9 31.1,5.6 v 21.9 c -9.9,-2.8 -19.4,-4.2 -28.6,-4.2 -10.7,0 -16.1,2.8 -16.1,8.4 0,2.1 0.9,3.9 2.8,5.3 1.9,1.5 5.3,3 10.3,4.7 l 9.4,3.1 c 10.7,3.5 18.4,7.8 22.9,12.7 4.5,5 6.8,11.5 6.8,19.8 0,11.5 -4.1,20.4 -12.3,26.7 -8.2,6.4 -19.7,9.5 -34.5,9.5 -6.4,0 -12.5,-0.5 -18.5,-1.6 -5.9,-1.1 -11,-2.6 -15.2,-4.5 v -22.2 c 5.1,1.4 10.8,2.5 17,3.4 6.2,0.9 11.9,1.3 17,1.3 5.4,0 9.4,-0.7 12,-2.1 2.6,-1.4 3.9,-3.6 3.9,-6.6 0,-1.7 -0.3,-3 -1,-4.1 -0.7,-1 -2,-2.1 -3.9,-3 -1.9,-1 -5.1,-2.3 -9.6,-3.8 z"
   id="path38"
   inkscape:connector-curvature="0"
   style="fill:#ffffff" />
		<path
   class="st0"
   d="M 439.4,411.1 V 302.8 h 32.7 c 15.7,0 27.7,4.6 35.8,13.8 8.1,9.2 12.2,22.7 12.2,40.4 0,17.6 -4.2,31 -12.7,40.3 -8.4,9.2 -20.6,13.8 -36.6,13.8 z m 9.2,-100.7 v 93 h 21.1 c 13.4,0 23.6,-3.7 30.4,-11.2 6.8,-7.5 10.2,-18.6 10.2,-33.4 V 355 c 0,-29.7 -13.5,-44.6 -40.5,-44.6 z"
   id="path40"
   inkscape:connector-curvature="0"
   style="fill:#ffffff" />
		<path
   class="st0"
   d="M 544.5,411.1 V 302.8 h 63.9 v 8.3 H 553.7 V 351 h 46.9 v 8.3 h -46.9 v 43.6 h 54.7 v 8.3 h -63.9 z"
   id="path42"
   inkscape:connector-curvature="0"
   style="fill:#ffffff" />
		<path
   class="st0"
   d="m 721.9,411.1 v -94.4 l -37.2,65.5 H 676 l -37.2,-65 v 94 H 630 V 302.8 h 10.9 l 39.7,69.7 39.4,-69.7 h 10.6 v 108.4 h -8.7 z"
   id="path44"
   inkscape:connector-curvature="0"
   style="fill:#ffffff" />
		<path
   class="st0"
   d="m 755.1,357.2 c 0,-17.8 4.4,-31.7 13.1,-41.7 8.8,-10 21,-14.9 36.6,-14.9 15.6,0 27.8,5 36.6,14.9 8.8,10 13.1,23.8 13.1,41.7 0,17.9 -4.4,31.7 -13.1,41.7 -8.8,10 -21,14.9 -36.6,14.9 -15.6,0 -27.8,-5 -36.6,-14.9 -8.8,-10 -13.1,-23.9 -13.1,-41.7 z m 9.7,0 c 0,15.7 3.4,27.7 10.2,35.8 6.8,8.1 16.7,12.2 29.9,12.2 13.2,0 23.1,-4.1 29.9,-12.2 6.8,-8.1 10.2,-20.1 10.2,-35.8 0,-15.7 -3.4,-27.7 -10.2,-35.8 -6.8,-8.1 -16.7,-12.2 -29.9,-12.2 -13.2,0 -23.1,4.1 -29.9,12.2 -6.9,8.1 -10.2,20 -10.2,35.8 z"
   id="path46"
   inkscape:connector-curvature="0"
   style="fill:#ffffff" />
	</g>
	<g
   id="g108">
		<path
   class="st0"
   d="m 91.3,467.2 v -28.6 h 9.2 c 4.1,0 7.3,1.2 9.4,3.7 2.2,2.4 3.3,6 3.3,10.7 0,4.6 -1.1,8.2 -3.3,10.6 -2.2,2.4 -5.4,3.7 -9.5,3.7 h -9.1 z m 8.7,-3.3 c 6,0 9,-3.5 9,-10.5 v -0.9 c 0,-3.5 -0.8,-6.1 -2.3,-7.9 -1.5,-1.8 -3.8,-2.6 -6.8,-2.6 h -4.5 v 22 h 4.6 z"
   id="path50"
   inkscape:connector-curvature="0"
   style="fill:#ffffff" />
		<path
   class="st0"
   d="m 143.1,460.9 c -1,2.2 -2.5,4 -4.5,5.2 -2,1.2 -4.3,1.8 -7.1,1.8 -2.7,0 -5,-0.6 -7,-1.8 -2,-1.2 -3.5,-2.9 -4.6,-5.1 -1.1,-2.3 -1.6,-5 -1.6,-8.1 0,-3.1 0.5,-5.7 1.5,-7.9 1,-2.2 2.5,-4 4.5,-5.2 2,-1.2 4.3,-1.8 7.1,-1.8 4.1,0 7.3,1.3 9.6,4 2.3,2.7 3.5,6.3 3.5,11 0.1,3 -0.4,5.6 -1.4,7.9 z m -11.6,3.4 c 2.9,0 5.1,-1 6.6,-2.9 1.5,-2 2.3,-4.8 2.3,-8.5 0,-3.7 -0.8,-6.5 -2.3,-8.5 -1.5,-1.9 -3.7,-2.9 -6.6,-2.9 -2.9,0 -5.1,1 -6.6,2.9 -1.5,1.9 -2.3,4.8 -2.3,8.5 0,3.7 0.8,6.6 2.3,8.5 1.5,2 3.8,2.9 6.6,2.9 z"
   id="path52"
   inkscape:connector-curvature="0"
   style="fill:#ffffff" />
		<path
   class="st0"
   d="m 170.4,466.4 c -2.2,0.9 -4.5,1.3 -7.1,1.3 -4.4,0 -7.8,-1.2 -10.1,-3.7 -2.3,-2.5 -3.4,-6.1 -3.4,-11 0,-4.8 1.2,-8.4 3.5,-11 2.4,-2.6 5.7,-3.8 10.1,-3.8 2.3,0 4.4,0.4 6.5,1.1 v 3.4 c -2.5,-0.6 -4.4,-0.9 -6,-0.9 -3.4,0 -5.9,0.8 -7.4,2.5 -1.6,1.7 -2.3,4.4 -2.3,8.1 v 1 c 0,3.6 0.8,6.3 2.3,8 1.5,1.7 3.9,2.6 7.3,2.6 1.7,0 3.9,-0.3 6.6,-1 z"
   id="path54"
   inkscape:connector-curvature="0"
   style="fill:#ffffff" />
		<path
   class="st0"
   d="m 197.1,456.8 c 0,3.6 -1,6.3 -2.9,8.3 -1.9,1.9 -4.6,2.9 -8.2,2.9 -3.6,0 -6.3,-1 -8.2,-2.9 -1.9,-1.9 -2.9,-4.7 -2.9,-8.3 v -18.2 h 4.1 v 18.5 c 0,2.3 0.6,4.1 1.8,5.3 1.2,1.3 2.9,1.9 5.1,1.9 2.2,0 3.9,-0.6 5.1,-1.9 1.2,-1.3 1.8,-3 1.8,-5.3 v -18.5 h 4.1 v 18.2 z"
   id="path56"
   inkscape:connector-curvature="0"
   style="fill:#ffffff" />
		<path
   class="st0"
   d="m 230.9,467.2 h -3.8 v -22.5 l -7.9,15.2 h -3.8 l -7.9,-15.2 v 22.5 h -3.8 v -28.6 h 4.6 l 9.1,17.5 9,-17.5 h 4.5 z"
   id="path58"
   inkscape:connector-curvature="0"
   style="fill:#ffffff" />
		<path
   class="st0"
   d="m 255.1,467.2 h -17.4 v -28.6 h 17.4 v 3.4 h -13.3 v 8.8 H 253 v 3.4 h -11.2 v 9.7 h 13.3 z"
   id="path60"
   inkscape:connector-curvature="0"
   style="fill:#ffffff" />
		<path
   class="st0"
   d="m 282.4,467.2 h -4.5 l -13.7,-22.7 v 22.7 h -3.8 v -28.6 h 4.5 l 13.8,22.9 v -22.9 h 3.8 v 28.6 z"
   id="path62"
   inkscape:connector-curvature="0"
   style="fill:#ffffff" />
		<path
   class="st0"
   d="m 299.5,467.2 h -4.1 v -25.1 h -8.9 v -3.5 h 22 v 3.5 h -8.9 v 25.1 z"
   id="path64"
   inkscape:connector-curvature="0"
   style="fill:#ffffff" />
		<path
   class="st0"
   d="m 344.9,456.8 c 0,3.6 -1,6.3 -2.9,8.3 -1.9,2 -4.6,2.9 -8.2,2.9 -3.6,0 -6.3,-1 -8.2,-2.9 -1.9,-1.9 -2.9,-4.7 -2.9,-8.3 v -18.2 h 4.1 v 18.5 c 0,2.3 0.6,4.1 1.8,5.3 1.2,1.3 2.9,1.9 5.1,1.9 2.2,0 3.9,-0.6 5.1,-1.9 1.2,-1.3 1.8,-3 1.8,-5.3 v -18.5 h 4.1 v 18.2 z"
   id="path66"
   inkscape:connector-curvature="0"
   style="fill:#ffffff" />
		<path
   class="st0"
   d="m 373.7,467.2 h -4.5 l -13.7,-22.7 v 22.7 h -3.8 v -28.6 h 4.5 l 13.8,22.9 v -22.9 h 3.8 v 28.6 z"
   id="path68"
   inkscape:connector-curvature="0"
   style="fill:#ffffff" />
		<path
   class="st0"
   d="m 380.5,467.2 v -28.6 h 9.2 c 4.1,0 7.3,1.2 9.4,3.7 2.2,2.4 3.3,6 3.3,10.7 0,4.6 -1.1,8.2 -3.3,10.6 -2.2,2.4 -5.4,3.7 -9.5,3.7 h -9.1 z m 8.6,-3.3 c 6,0 9,-3.5 9,-10.5 v -0.9 c 0,-3.5 -0.8,-6.1 -2.3,-7.9 -1.5,-1.8 -3.8,-2.6 -6.8,-2.6 h -4.5 v 22 h 4.6 z"
   id="path70"
   inkscape:connector-curvature="0"
   style="fill:#ffffff" />
		<path
   class="st0"
   d="m 425.8,467.2 h -17.4 v -28.6 h 17.4 v 3.4 h -13.3 v 8.8 h 11.2 v 3.4 h -11.2 v 9.7 h 13.3 z"
   id="path72"
   inkscape:connector-curvature="0"
   style="fill:#ffffff" />
		<path
   class="st0"
   d="m 451.9,467.2 h -4.5 l -6.9,-11.5 H 435 v 11.5 h -4 v -28.6 h 10.2 c 2.7,0 4.9,0.8 6.5,2.3 1.6,1.5 2.4,3.6 2.4,6.2 0,1.9 -0.5,3.5 -1.5,4.9 -1,1.4 -2.4,2.4 -4.3,3 z m -11.2,-14.9 c 1.7,0 3,-0.4 3.9,-1.3 0.9,-0.9 1.4,-2.2 1.4,-3.9 0,-1.7 -0.4,-3 -1.3,-3.9 -0.9,-0.9 -2.1,-1.3 -3.8,-1.3 H 435 v 10.4 z"
   id="path74"
   inkscape:connector-curvature="0"
   style="fill:#ffffff" />
		<path
   class="st0"
   d="m 467.2,451.7 c 2.2,0.8 3.8,1.8 4.7,3 1,1.2 1.4,2.7 1.4,4.5 0,2.6 -0.9,4.7 -2.8,6.3 -1.8,1.6 -4.3,2.4 -7.5,2.4 -3.1,0 -5.8,-0.6 -8.1,-1.7 v -3.3 c 2.8,1 5.5,1.4 8,1.4 1.9,0 3.4,-0.4 4.5,-1.3 1.1,-0.9 1.6,-2 1.6,-3.5 0,-1 -0.3,-1.9 -1,-2.5 -0.6,-0.7 -1.7,-1.3 -3.2,-1.9 l -3.9,-1.5 c -2.2,-0.9 -3.8,-1.9 -4.8,-3.1 -1,-1.2 -1.5,-2.7 -1.5,-4.6 0,-1.5 0.4,-2.9 1.1,-4.1 0.8,-1.2 1.8,-2.1 3.3,-2.8 1.4,-0.7 3.1,-1 5,-1 2.4,0 4.9,0.5 7.5,1.5 v 3.3 c -2.7,-0.9 -5.1,-1.3 -7.2,-1.3 -1.8,0 -3.1,0.4 -4.1,1.1 -1,0.7 -1.4,1.8 -1.4,3.1 0,1.1 0.3,2 1,2.6 0.6,0.6 1.8,1.3 3.6,2 z"
   id="path76"
   inkscape:connector-curvature="0"
   style="fill:#ffffff" />
		<path
   class="st0"
   d="M 489.1,467.2 H 485 v -25.1 h -8.9 v -3.5 h 22 v 3.5 h -8.9 v 25.1 z"
   id="path78"
   inkscape:connector-curvature="0"
   style="fill:#ffffff" />
		<path
   class="st0"
   d="m 522.8,467.2 h -4.3 l -2.6,-7.6 h -11.5 l -2.5,7.6 h -4.2 l 10.4,-28.6 h 4.4 z m -7.9,-10.8 -4.7,-14 -4.7,14 z"
   id="path80"
   inkscape:connector-curvature="0"
   style="fill:#ffffff" />
		<path
   class="st0"
   d="m 548.7,467.2 h -4.5 l -13.7,-22.7 v 22.7 h -3.8 v -28.6 h 4.5 l 13.8,22.9 v -22.9 h 3.8 v 28.6 z"
   id="path82"
   inkscape:connector-curvature="0"
   style="fill:#ffffff" />
		<path
   class="st0"
   d="m 555.5,467.2 v -28.6 h 9.2 c 4.1,0 7.3,1.2 9.4,3.7 2.2,2.4 3.3,6 3.3,10.7 0,4.6 -1.1,8.2 -3.3,10.6 -2.2,2.4 -5.4,3.7 -9.5,3.7 h -9.1 z m 8.6,-3.3 c 6,0 9,-3.5 9,-10.5 v -0.9 c 0,-3.5 -0.8,-6.1 -2.3,-7.9 -1.5,-1.8 -3.8,-2.6 -6.8,-2.6 h -4.5 v 22 h 4.6 z"
   id="path84"
   inkscape:connector-curvature="0"
   style="fill:#ffffff" />
		<path
   class="st0"
   d="m 587.7,467.2 h -4.1 v -28.6 h 4.1 z"
   id="path86"
   inkscape:connector-curvature="0"
   style="fill:#ffffff" />
		<path
   class="st0"
   d="m 616.7,467.2 h -4.5 l -13.7,-22.7 v 22.7 h -3.8 v -28.6 h 4.5 l 13.8,22.9 v -22.9 h 3.8 v 28.6 z"
   id="path88"
   inkscape:connector-curvature="0"
   style="fill:#ffffff" />
		<path
   class="st0"
   d="m 645.2,465.7 c -1.2,0.7 -2.5,1.2 -4.1,1.5 -1.6,0.3 -3.2,0.5 -4.9,0.5 -4.4,0 -7.8,-1.2 -10.1,-3.7 -2.3,-2.5 -3.4,-6.1 -3.4,-10.9 0,-4.8 1.2,-8.5 3.5,-11.1 2.3,-2.5 5.7,-3.8 10.2,-3.8 2.8,0 5.4,0.6 7.8,1.7 v 3.3 c -2.8,-1 -5.2,-1.4 -7.4,-1.4 -3.4,0 -5.9,0.9 -7.5,2.6 -1.6,1.7 -2.4,4.5 -2.4,8.2 v 0.9 c 0,3.7 0.8,6.4 2.4,8.1 1.6,1.7 4.2,2.6 7.6,2.6 1.6,0 3,-0.2 4.3,-0.5 v -8.4 H 635 V 452 h 10.1 v 13.7 z"
   id="path90"
   inkscape:connector-curvature="0"
   style="fill:#ffffff" />
		<path
   class="st0"
   d="m 673.4,451.7 c 2.2,0.8 3.8,1.8 4.7,3 1,1.2 1.4,2.7 1.4,4.5 0,2.6 -0.9,4.7 -2.8,6.3 -1.8,1.6 -4.3,2.4 -7.5,2.4 -3.1,0 -5.8,-0.6 -8.1,-1.7 v -3.3 c 2.8,1 5.5,1.4 8,1.4 1.9,0 3.4,-0.4 4.5,-1.3 1.1,-0.9 1.6,-2 1.6,-3.5 0,-1 -0.3,-1.9 -1,-2.5 -0.6,-0.7 -1.7,-1.3 -3.2,-1.9 l -3.9,-1.5 c -2.2,-0.9 -3.8,-1.9 -4.8,-3.1 -1,-1.2 -1.5,-2.7 -1.5,-4.6 0,-1.5 0.4,-2.9 1.1,-4.1 0.8,-1.2 1.8,-2.1 3.3,-2.8 1.4,-0.7 3.1,-1 5,-1 2.4,0 4.9,0.5 7.5,1.5 v 3.3 c -2.7,-0.9 -5.1,-1.3 -7.2,-1.3 -1.8,0 -3.1,0.4 -4.1,1.1 -1,0.7 -1.4,1.8 -1.4,3.1 0,1.1 0.3,2 1,2.6 0.6,0.6 1.8,1.3 3.6,2 z"
   id="path92"
   inkscape:connector-curvature="0"
   style="fill:#ffffff" />
		<path
   class="st0"
   d="m 709,460.9 c -1,2.2 -2.5,4 -4.5,5.2 -2,1.2 -4.3,1.8 -7.1,1.8 -2.7,0 -5,-0.6 -7,-1.8 -2,-1.2 -3.5,-2.9 -4.6,-5.1 -1.1,-2.3 -1.6,-5 -1.6,-8.1 0,-3.1 0.5,-5.7 1.5,-7.9 1,-2.2 2.5,-4 4.5,-5.2 2,-1.2 4.3,-1.8 7.1,-1.8 4.1,0 7.3,1.3 9.6,4 2.3,2.7 3.5,6.3 3.5,11 0.2,3 -0.4,5.6 -1.4,7.9 z m -11.5,3.4 c 2.9,0 5.1,-1 6.6,-2.9 1.5,-1.9 2.3,-4.8 2.3,-8.5 0,-3.7 -0.8,-6.5 -2.3,-8.5 -1.5,-2 -3.7,-2.9 -6.6,-2.9 -2.9,0 -5.1,1 -6.6,2.9 -1.5,1.9 -2.3,4.8 -2.3,8.5 0,3.7 0.8,6.6 2.3,8.5 1.5,2 3.7,2.9 6.6,2.9 z"
   id="path94"
   inkscape:connector-curvature="0"
   style="fill:#ffffff" />
		<path
   class="st0"
   d="m 733.9,467.2 h -17.3 v -28.6 h 4.1 v 25.1 h 13.2 z"
   id="path96"
   inkscape:connector-curvature="0"
   style="fill:#ffffff" />
		<path
   class="st0"
   d="m 759.4,456.8 c 0,3.6 -1,6.3 -2.9,8.3 -1.9,1.9 -4.6,2.9 -8.2,2.9 -3.6,0 -6.3,-1 -8.2,-2.9 -1.9,-1.9 -2.9,-4.7 -2.9,-8.3 v -18.2 h 4.1 v 18.5 c 0,2.3 0.6,4.1 1.8,5.3 1.2,1.3 2.9,1.9 5.1,1.9 2.2,0 3.9,-0.6 5.1,-1.9 1.2,-1.3 1.8,-3 1.8,-5.3 v -18.5 h 4.1 v 18.2 z"
   id="path98"
   inkscape:connector-curvature="0"
   style="fill:#ffffff" />
		<path
   class="st0"
   d="m 776.4,467.2 h -4.1 v -25.1 h -8.9 v -3.5 h 22 v 3.5 h -8.9 v 25.1 z"
   id="path100"
   inkscape:connector-curvature="0"
   style="fill:#ffffff" />
		<path
   class="st0"
   d="m 793.6,467.2 h -4.1 v -28.6 h 4.1 z"
   id="path102"
   inkscape:connector-curvature="0"
   style="fill:#ffffff" />
		<path
   class="st0"
   d="m 824.4,460.9 c -1,2.2 -2.5,4 -4.5,5.2 -2,1.2 -4.3,1.8 -7.1,1.8 -2.7,0 -5,-0.6 -7,-1.8 -2,-1.2 -3.5,-2.9 -4.6,-5.1 -1.1,-2.3 -1.6,-5 -1.6,-8.1 0,-3.1 0.5,-5.7 1.5,-7.9 1,-2.2 2.5,-4 4.5,-5.2 2,-1.2 4.3,-1.8 7.1,-1.8 4.1,0 7.3,1.3 9.6,4 2.3,2.7 3.5,6.3 3.5,11 0.2,3 -0.3,5.6 -1.4,7.9 z m -11.5,3.4 c 2.9,0 5.1,-1 6.6,-2.9 1.5,-1.9 2.3,-4.8 2.3,-8.5 0,-3.7 -0.8,-6.5 -2.3,-8.5 -1.5,-2 -3.7,-2.9 -6.6,-2.9 -2.9,0 -5.1,1 -6.6,2.9 -1.5,1.9 -2.3,4.8 -2.3,8.5 0,3.7 0.8,6.6 2.3,8.5 1.5,2 3.7,2.9 6.6,2.9 z"
   id="path104"
   inkscape:connector-curvature="0"
   style="fill:#ffffff" />
		<path
   class="st0"
   d="m 854,467.2 h -4.5 l -13.7,-22.7 v 22.7 H 832 v -28.6 h 4.5 l 13.8,22.9 v -22.9 h 3.8 v 28.6 z"
   id="path106"
   inkscape:connector-curvature="0"
   style="fill:#ffffff" />
	</g>
</g>
</svg>