<svg width="16" height="17" viewBox="0 0 16 17" fill="none" xmlns="http://www.w3.org/2000/svg">
<path fill-rule="evenodd" clip-rule="evenodd" d="M0 8.66342C0 4.24514 3.58172 0.663422 8 0.663422C12.4183 0.663422 16 4.24514 16 8.66342C16 13.0817 12.4183 16.6634 8 16.6634C3.58172 16.6634 0 13.0817 0 8.66342ZM9 13.6634V11.6634H7V13.6634H9ZM6.87991 5.42972C6.62227 5.78168 6.49345 6.25312 6.49345 6.84406H5C5 6.36609 5.07205 5.93158 5.21616 5.54052C5.36026 5.14946 5.56987 4.81488 5.84498 4.5368C6.12009 4.25871 6.45196 4.04362 6.84061 3.89154C7.22926 3.73946 7.66375 3.66342 8.1441 3.66342C8.54585 3.66342 8.91921 3.72208 9.26419 3.8394C9.60917 3.95672 9.91048 4.12618 10.1681 4.34778C10.4258 4.56938 10.6288 4.8453 10.7773 5.17553C10.9258 5.50576 11 5.87944 11 6.29657C11 6.60073 10.9672 6.86361 10.9017 7.08521C10.8362 7.30682 10.7489 7.498 10.6397 7.65877C10.5306 7.81954 10.4061 7.96293 10.2664 8.08894C10.1266 8.21495 9.9869 8.33878 9.84716 8.46045C9.68122 8.59949 9.52839 8.73419 9.38865 8.86454C9.24891 8.9949 9.12664 9.14046 9.02183 9.30123C8.91703 9.462 8.83624 9.65101 8.77948 9.86827C8.72271 10.0855 8.69432 10.3506 8.69432 10.6634H7.27948C7.27948 10.2811 7.29913 9.95734 7.33843 9.69229C7.37773 9.42723 7.44105 9.19477 7.52838 8.9949C7.61572 8.79502 7.72271 8.61904 7.84935 8.46696C7.97598 8.31488 8.12664 8.16498 8.30131 8.01724C8.44105 7.89558 8.57423 7.78261 8.70087 7.67832C8.82751 7.57404 8.94105 7.45889 9.04148 7.33288C9.14192 7.20688 9.22052 7.06566 9.27729 6.90924C9.33406 6.75281 9.36245 6.56597 9.36245 6.34871C9.36245 6.088 9.31659 5.86423 9.22489 5.67739C9.13319 5.49055 9.02183 5.34064 8.89083 5.22767C8.75982 5.1147 8.62009 5.03214 8.47162 4.98C8.32314 4.92786 8.19214 4.90179 8.0786 4.90179C7.53712 4.90179 7.13756 5.07776 6.87991 5.42972Z" fill="#fff"/>
</svg>
