<svg height="48" viewBox="0 0 48 48" width="48" xmlns="http://www.w3.org/2000/svg" xmlns:xlink="http://www.w3.org/1999/xlink"><mask id="a" fill="#fff"><path d="m.7494.30014433h7.6306v10.44965567h-7.6306z" fill="#fff" fill-rule="evenodd"/></mask><g fill="none" fill-rule="evenodd" transform="translate(3)"><g fill="#13b193"><path d="m3.7503.0002v10.38h2v-8.38h29.88v8.38h2v-10.38z"/><path d="m35.6301 20.6903v24.31h-29.88v-24.31h-2v26.31h33.881v-26.31z"/><path d="m8.5 7.63h24.38v-2h-24.38z"/><path d="m8.62 13.25h24.26v-2h-24.26z"/><path d="m8.5 18.88h24.38v-2h-24.38z"/><path d="m8.5 24.5h24.38v-2h-24.38z"/><path d="m8.5 30.13h24.38v-2h-24.38z"/><path d="m8.5 35.75h24.38v-2h-24.38z"/><path d="m8.5 41.38h24.38v-2h-24.38z"/></g><g fill="#16bf9f" transform="translate(0 10)"><path d="m2.0001 3.3101v4.44l3-2.22zm-1 7.44c-.154.003-.306-.035-.44-.11-.34-.167-.557-.511-.56-.89v-8.44c0-.552.448-1 1-1 .216 0 .427.07.6.2l5.63 4.22c.252.189.4.485.4.8s-.148.611-.4.8l-5.63 4.22c-.173.13-.384.2-.6.2z"/><path d="m3.3804 5.5298 3 2.22v-4.44zm4 5.22c-.217 0-.428-.07-.601-.2l-5.629-4.22c-.252-.189-.401-.485-.401-.8 0-.314.149-.611.401-.8l5.629-4.23c.443-.331 1.069-.241 1.401.2.13.173.2.384.2.6v8.44c-.004.379-.221.724-.561.89-.132.079-.285.12-.439.12z" mask="url(#a)" transform="translate(33)"/></g></g></svg>