<svg height="107" viewBox="0 0 81 107" width="81" xmlns="http://www.w3.org/2000/svg"><g fill="#879196" fill-rule="evenodd"><path d="m72.4989288 16.7212532-17.5731186-15.56550636c-.3261017-.29532912-.7500339-.45386076-1.1877627-.4449114h-51.50650852-.04891525c-.9921017.01278481-1.78352542.84251899-1.77098305 1.85251899v4.69458228h3.63728813v-2.84206329h49.05949149l16.4091865 14.55294938v77.9272531h-3.0778983v3.7063161h4.8476271c1.0033898 0 1.8173898-.8297338 1.8173898-1.8525186v-80.6453038c0-.5280126-.2194915-1.0317342-.6057966-1.3833164" transform="translate(7)"/><path d="m3.66006716 103.314058v-9.1195273-2.6208315-77.8902997h48.30202504v13.6328996c.0138926 1.0117274.824715 1.8289896 1.8312966 1.8416998h13.4720278v74.1560591zm51.96461814-86.9526313 9.0541828 9.1131727h-9.0541828zm-.5380223-5.8212456c-.3435259-.3457159-.8082964-.5401811-1.2932742-.5401811h-51.86610706c-1.00531865.0127101-1.81866691.8299724-1.83003358 1.8416998v79.7319994h-.09724816v13.5833298c0 1.016812.81840011 1.8417 1.83003358 1.8417h67.26667952c.0252593.001271.0505185.001271.0745148.001271 1.0116335-.001271 1.8300336-.826159 1.8287706-1.842971v-77.8407299c0-.4880695-.1932333-.9570738-.5354963-1.3015186z"/><path d="m34.5 57.5v-8.5h3v8.5h8.5v3h-8.5v8.5h-3v-8.5h-8.5v-3z"/></g></svg>
