<svg height="38" viewBox="0 0 63 38" width="63" xmlns="http://www.w3.org/2000/svg"><g fill="none" fill-rule="evenodd"><path d="m17.7284877 13.2049503c-.0201569.6075796.0612514 1.2143395.2411478 1.797345.1854149.4993677.4146898.9828157.6853675 1.4451626.0922094.138374.1447364.2975309.1523038.4614804-.0271207.2494349-.1783582.4710226-.4061436.595067l-1.269199.8500956c-.164215.1103791-.3579644.1735793-.5584476.1821633-.2384097-.0081681-.4630185-.1090466-.6219075-.2793171-.2947998-.2790789-.5507509-.5933732-.7615193-.9351052-.2115332-.3400382-.427297-.7448457-.6472915-1.2144223-1.506364 1.7989297-3.7975846 2.8300894-6.20638296 2.7931713-1.55072444.0813113-3.07009341-.439778-4.21374058-1.4451625-1.06021317-1.03192-1.6215707-2.4407861-1.54842274-3.8861514-.06814651-1.5739137.6133557-3.0924785 1.85303049-4.12903586 1.46958676-1.10734589 3.31055553-1.66429561 5.17833179-1.56660478.747559.00208076 1.4940246.05483781 2.2337902.1578749.778442.10524993 1.5864987.25098061 2.42417.43719203v-1.48159521c.1232542-1.16109965-.2370333-2.3218632-1.0026672-3.23036334-.9795345-.72074385-2.2102662-1.055343-3.43952917-.93510518-.76560431.00371189-1.52810816.09338283-2.27186616.26717291-.77401073.17709994-1.53335031.40846506-2.27186615.69222072-.23874072.10497746-.48469062.19424249-.7361354.2671729h-.32999173c-.29614643 0-.44421964-.21049986-.44421964-.6314996v-.95939362c-.01814986-.2437387.03456434-.48752788.15230387-.70436494.15907546-.18667463.36402745-.33271144.59652352-.4250478.84943117-.38937177 1.73826761-.69456638 2.65262584-.91081673 1.07380534-.26381384 2.1786051-.39442305 3.28722532-.38861514 1.9940102-.16909546 3.9774162.41987859 5.5210155 1.63947011 1.2681202 1.35738642 1.9009313 3.15194786 1.7514946 4.96698724zm-8.56709303 3.0724884c.74429924-.0103659 1.48177473-.1375465 2.18302223-.3764709.7730025-.2561894 1.4607756-.7046965 1.9926424-1.2994319.3276833-.3496553.5704073-.7643847.7107514-1.2144223.146125-.5721208.2143807-1.1599095.2030718-1.7487681v-.8500956c-.6403908-.1468537-1.2886343-.2603665-1.9418744-.3400382-.6566476-.0803816-1.3179511-.1209434-1.9799504-.1214423-1.11146783-.0797552-2.21792613.207424-3.13492144.813663-.67075262.5662101-1.03908081 1.3915249-1.00266718 2.2466812-.06064562.7840874.21946003 1.5573816.77421137 2.1373833.59851372.5197852 1.38839464.7906467 2.19571422.7529418zm16.94380623 2.1859602c-.285938.0250116-.5722902-.0434868-.8122873-.1943076-.2246839-.2165218-.3789795-.4907038-.4442197-.7893745l-4.937184-15.61747086c-.0957936-.26335598-.1596718-.53636442-.1903798-.81366295-.0218223-.13740393.0259328-.27655013.1286402-.37482483.1027074-.09827471.2481298-.14396877.3917314-.12308831h2.0687943c.2901563-.02783743.5814808.04077829.8249793.19430757.2100122.22311927.354523.49547714.4188357.7893745l3.5410651 13.35864538 3.2872253-13.35864538c.0507491-.29476442.197304-.56672512.4188357-.77723028.2544031-.15021062.5524779-.21832058.8503633-.19430757h1.7007266c.2978854-.02401301.5959602.04409695.8503633.19430757.2192579.21538.3614591.49175995.4061437.7893745l3.3126093 13.52866446 3.655293-13.52866446c.0673767-.29535051.2164092-.56796903.4315277-.7893745.2434985-.15352927.534823-.222145.8249793-.19430757h1.9545664c.1436016-.02088046.289024.02481361.3917314.12308831s.1504625.2374209.1286402.37482484c.0105386.10500841.0105386.21074139 0 .3157498-.0405367.16868093-.0913922.33493824-.1523039.49791314l-5.0767959 15.61747084c-.0652401.2986708-.2195358.5728527-.4442196.7893745-.2399971.1508208-.5263493.2193193-.8122873.1943076h-1.8530305c-.3000904.0300888-.6015677-.0431041-.8503633-.2064518-.2177213-.2260306-.3592488-.5095649-.4061437-.8136629l-3.2872253-13.00646295-3.2491494 12.99431865c-.0468949.3040981-.1884224.5876324-.4061437.813663-.2487956.1633477-.5502729.2365405-.8503633.2064518zm27.11009.5343458c-1.0935526.0017268-2.1837113-.1164379-3.2491494-.3521825-.8473791-.1632234-1.6673235-.4370011-2.436862-.8136629-.4732479-.1917635-.7789228-.6376793-.7742114-1.1294128v-1.0201147c0-.4209997.1607652-.6314996.4822956-.6314996.1346134.0019134.2678135.0265814.3934517.0728653l.5330636.2064518c.7449418.3154039 1.5238182.5516069 2.3226341.704365.8351692.164163 1.685793.2455542 2.5383979.2428844 1.0733749.0608646 2.1427858-.1707367 3.0841535-.6679322.699681-.397823 1.1178563-1.1282882 1.0915111-1.9066431.0146058-.5238365-.1911586-1.0313593-.5711395-1.4087298-.6406478-.5137027-1.3962998-.8793777-2.2084062-1.0686917l-3.0587695-.9229609c-1.2880024-.342437-2.4353048-1.05451484-3.2872253-2.0402295-.6803594-.8369536-1.0509037-1.86643638-1.0534352-2.92675776-.0177009-.78374311.1791979-1.55828053.5711395-2.24668127.3792673-.64756222.8933071-1.213815 1.5103468-1.66375856.646929-.47066657 1.3780868-.82458296 2.1576383-1.04440318.8620877-.23803102 1.755375-.35663053 2.6526258-.35218247.4752346-.00040053.9500188.0279928 1.4215029.08500956.4822956.05667304.9392072.13358645 1.3707348.23074024.4315277.09715378.8334407.20240371 1.2057391.3157498.3064681.09197155.6037848.20982958.8884392.35218247.2403761.1239986.4519492.29338883.6219075.49791314.1341906.1984192.2007106.43179928.1903799.66793227v.95939362c0 .42099974-.1607652.6314996-.4822956.6314996-.2845275-.03040606-.5602936-.11286371-.8122874-.24288446-1.2806982-.5323186-2.665281-.79728387-4.0614367-.77723028-.9711028-.04830315-1.9384114.14853563-2.8049297.57077849-.6620067.36998174-1.0498203 1.06516238-1.0026672 1.79734501-.0127955.54014807.2129976 1.06042756.6219075 1.43301833.6841328.52359577 1.4753487.9041984 2.3226341 1.11726852l2.9953096.86223984c1.2683961.31544243 2.4062133.99323899 3.2618413 1.94307569.6710478.833404 1.0207467 1.8629623.9899752 2.9146135.0111863.8126435-.1802544 1.6161309-.5584475 2.3438351-.3696084.6951807-.8937889 1.3045111-1.5357308 1.7852008-.6997161.5170942-1.4968794.9005352-2.348018 1.1294127-.9713359.2540092-1.9758857.3726248-2.9826176.3521825z" fill="#fff" fill-rule="nonzero"/><g fill="#f90"><path d="m56.5807104 30.1277234c-6.8246978 5.137304-16.7311148 7.8712653-25.1902467 7.8712653-11.4130404.0766013-22.4413902-4.2007875-30.91700417-11.9912814-.63630638-.5849406-.07485957-1.3860548.69868936-.9409914 9.40228361 5.4816099 20.04769071 8.3617277 30.87957441 8.3544771 8.0891641-.04429 16.0900752-1.7166752 23.5433361-4.9211303 1.1478468-.4959279 2.1210212.775682.985651 1.6276607z"/><path d="m59.8257679 26.9239375c-.8863258-1.1570627-5.8624123-.5399626-8.0908887-.2699813-.6710752.0771375-.7850314-.5142501-.1772651-.9513626 3.9631426-2.8283753 10.4713066-2.0184315 11.2183526-1.0670689.7470461.9513626-.2025887 7.5723321-3.9124954 10.7349699-.5697809.4885375-1.1142382.2314125-.8610023-.4114.8356787-2.1341378 2.7096247-6.8780945 1.8232989-8.0351571z"/></g></g></svg>