<svg height="48" viewBox="0 0 48 48" width="48" xmlns="http://www.w3.org/2000/svg" xmlns:xlink="http://www.w3.org/1999/xlink"><mask id="a" fill="#fff"><path d="m.40772998.32544h28.78971002v38.8128h-28.78971002z" fill="#fff" fill-rule="evenodd"/></mask><mask id="b" fill="#fff"><path d="m.176544.48912h27.9264021v37.91088h-27.9264021z" fill="#fff" fill-rule="evenodd"/></mask><g fill="#a166ff" fill-rule="evenodd" transform="translate(0 3)"><path d="m28.478208 39.13824h-1.92v-1.44h1.2192v-30.2784l-6.4992-5.6544h-19.4304v1.104h-1.44v-1.824c-.00576-.39168.30816-.71424.69984-.72h.02016 20.4c.17184-.00288.33984.05856.4704.1728l6.96 6.048c.15264.13728.24.33216.24.5376v31.3344c0 .3984-.32256.72-.72.72" mask="url(#a)" transform="translate(18.24 .634272)"/><path d="m.896544 38.39952c-.39744 0-.72-.32256-.72-.72v-10.5063701h1.44v9.7863701h25.0176v-29.4048l-5.62464-5.6256h-19.39296v13.9412955h-1.4016v-14.6612955c.00576-.39552.32448-.7152.72-.72h20.4c.192 0 .3744.07584.50976.2112l6.048 6.048c.1344.1344.21024.31776.21024.5088v30.4224c.00096.39744-.3216.72-.71904.72096-.0096 0-.0192-.00096-.02976-.00096z" mask="url(#b)" transform="translate(16.32 3.514272)"/><path d="m43.674144 11.491392h-6.0192c-.39552-.0048-.71424-.32448-.72-.72v-6.048h1.44v5.328h5.328z"/><path d="m19.29984 25.027872h6.9696v-1.44h-6.9696z"/><path d="m17.25504 28.666272h7.728v-1.44h-7.728z"/><path d="m28.89984 25.046112h11.28v-1.44h-11.28z"/><path d="m31.7616 29.442912h8.256v-1.44h-8.256z"/><path d="m22.5276563 16.627872h17.4889837v-1.44h-17.4889837z"/><path d="m26.3538281 20.457312h13.6628119v-1.44h-13.6628119z"/><path d="m10.10304 24.834912h3.9552v-1.44h-3.9552z"/><path d="m1.18464 24.834912h5.4048v-1.44h-5.4048z"/><path d="m4.83264 21.820512h5.1264v-1.44h-5.1264z"/><path d="m3.7488 27.926112h7.1232v-1.44h-7.1232z"/><path d="m15.99744 24.959712h2.3616v-1.44h-2.3616z"/><path d="m2.135424 26.534112-1.92-1.92c-.2832-.2784-.288-.7344-.00864-1.01856.00288-.00192.00576-.0048.00864-.00768l1.92-1.92 1.0176 1.01664-1.392 1.392 1.392 1.4016z"/></g></svg>